<?xml version="1.0" encoding="UTF-8"?>
<svg width="160px" height="160px" viewBox="0 0 160 160" version="1.1" xmlns="http://www.w3.org/2000/svg" xmlns:xlink="http://www.w3.org/1999/xlink">
    <!-- Generator: Sketch 50.2 (55047) - http://www.bohemiancoding.com/sketch -->
    <title>flaticon1531930644-svg</title>
    <desc>Created with Sketch.</desc>
    <defs></defs>
    <g id="Page-1" stroke="none" stroke-width="1" fill="none" fill-rule="evenodd">
        <g id="Desktop-Sketch" transform="translate(-620.000000, -6581.000000)" fill="#FFFFFF" fill-rule="nonzero">
            <g id="Footer" transform="translate(0.000000, 6466.000000)">
                <g id="Social-Media" transform="translate(360.000000, 115.000000)">
                    <g id="flaticon1531930644-svg" transform="translate(260.000000, 0.000000)">
                        <path d="M149.268537,40.842742 C142.114715,28.278161 132.411013,18.3307648 120.154875,10.9983093 C107.896914,3.66547977 94.5148742,0 79.9992703,0 C65.4854907,0 52.0990728,3.66660174 39.8436652,10.9983093 C27.5864334,18.3303908 17.8830955,28.278161 10.7292736,40.842742 C3.57654613,53.406949 0,67.1271603 0,82.0030019 C0,99.8722625 5.08589749,115.940759 15.2602464,130.212607 C25.4335007,144.485576 38.5758393,154.361914 54.6861675,159.842743 C56.5614554,160.19953 57.9496792,159.948582 58.8522983,159.096258 C59.7552822,158.242812 60.2062269,157.173947 60.2062269,155.894152 C60.2062269,155.680604 60.1883497,153.759415 60.1536897,150.128343 C60.1179352,146.49727 60.1011524,143.329571 60.1011524,140.626743 L57.705235,141.051596 C56.1776416,141.338447 54.2505461,141.459993 51.9239487,141.425586 C49.5984458,141.392301 47.1842863,141.142476 44.6847537,140.67798 C42.1841266,140.217597 39.8582589,139.149855 37.7053262,137.476996 C35.5534881,135.804137 34.0258947,133.614423 33.1229107,130.911221 L32.0812868,128.454104 C31.3869925,126.81827 30.2939258,125.001051 28.8006275,123.009178 C27.3073292,121.015435 25.7972482,119.663834 24.2696547,118.95213 L23.5403356,118.41695 C23.054366,118.061285 22.6034213,117.632318 22.1864069,117.134537 C21.7697573,116.636756 21.4578174,116.1386 21.2494926,115.639697 C21.040803,115.14042 21.2137381,114.730901 21.7701222,114.409643 C22.3265062,114.088385 23.3320108,113.932431 24.7910139,113.932431 L26.8735321,114.251445 C28.2624856,114.5368 29.9805266,115.389124 32.0298441,116.813653 C34.0780671,118.23706 35.7618129,120.087565 37.0814464,122.364418 C38.6794544,125.283787 40.6047256,127.508282 42.8627328,129.039025 C45.1189157,130.569767 47.3937056,131.33383 49.6849133,131.33383 C51.9761211,131.33383 53.9550241,131.15581 55.622352,130.801641 C57.2878558,130.445603 58.8504741,129.910422 60.3094772,129.199093 C60.9344516,124.427723 62.6360747,120.762244 65.4128871,118.200035 C61.4550811,117.773686 57.8967771,117.131545 54.7361508,116.277725 C51.5773488,115.422783 48.3131074,114.035278 44.9456157,112.111472 C41.5762999,110.190283 38.7812453,107.804599 36.5597224,104.958532 C34.3378346,102.110969 32.5143543,98.3725611 31.0918353,93.746674 C29.6685866,89.118917 28.9567799,83.7805782 28.9567799,77.7301617 C28.9567799,69.1152932 31.7003917,61.7843337 37.1865209,55.7331692 C34.6165739,49.2564037 34.8591938,41.9957544 37.9151104,33.9519692 C39.9290382,33.3105757 42.9156348,33.7919013 46.8734409,35.3929541 C50.8319766,36.994755 53.7302814,38.3669257 55.5712742,39.5046044 C57.4122669,40.6419092 58.8873231,41.6056824 59.9986318,42.3873223 C66.4581595,40.5371919 73.1241877,39.6119397 79.9985406,39.6119397 C86.8728936,39.6119397 93.5403812,40.5371919 100.000274,42.3873223 L103.958444,39.8258622 C106.665207,38.1167261 109.861588,36.5504544 113.539925,35.126673 C117.220451,33.7036396 120.034842,33.3116976 121.98018,33.9530911 C125.103957,41.9972504 125.382332,49.2575257 122.811655,55.7342912 C128.297419,61.7854556 131.042126,69.1182851 131.042126,77.7312837 C131.042126,83.7817002 130.327765,89.1368685 128.906705,93.8001546 C127.483822,98.4641887 125.644653,102.198857 123.38847,105.012012 C121.129733,107.824794 118.316801,110.191779 114.94931,112.112594 C111.581088,114.034904 108.315753,115.422409 105.15695,116.277351 C101.996689,117.132293 98.438385,117.774808 94.480579,118.201905 C98.0903258,121.404011 99.895564,126.458491 99.895564,133.363102 L99.895564,155.89116 C99.895564,157.170956 100.329726,158.239446 101.19878,159.093266 C102.066739,159.94559 103.43745,160.196538 105.312738,159.839377 C121.425255,154.359296 134.567594,144.482584 144.740483,130.209615 C154.912278,115.937768 160,99.8692706 160,82.00001 C159.996352,67.1260384 156.417981,53.406949 149.268537,40.842742 Z" id="Shape"></path>
                    </g>
                </g>
            </g>
        </g>
    </g>
</svg>