<?xml version="1.0" encoding="UTF-8"?>
<svg width="159px" height="159px" viewBox="0 0 159 159" version="1.1" xmlns="http://www.w3.org/2000/svg" xmlns:xlink="http://www.w3.org/1999/xlink">
    <!-- Generator: Sketch 50.2 (55047) - http://www.bohemiancoding.com/sketch -->
    <title>flaticon1531930623-svg</title>
    <desc>Created with Sketch.</desc>
    <defs></defs>
    <g id="Page-1" stroke="none" stroke-width="1" fill="none" fill-rule="evenodd">
        <g id="Desktop-Sketch" transform="translate(-360.000000, -6581.000000)" fill="#FFFFFF" fill-rule="nonzero">
            <g id="Footer" transform="translate(0.000000, 6466.000000)">
                <g id="Social-Media" transform="translate(360.000000, 115.000000)">
                    <g id="flaticon1531930623-svg">
                        <path d="M79.4432,0 C35.6384,0 0,35.6384 0,79.4432 C0,123.2448 35.6384,158.8864 79.4432,158.8864 C123.2448,158.8864 158.8864,123.2448 158.8864,79.4432 C158.8864,35.6384 123.2512,0 79.4432,0 Z M114.8832,61.2608 C114.9184,62.048 114.9376,62.8416 114.9376,63.6352 C114.9376,87.7984 96.5504,115.6512 62.9088,115.6512 C52.5824,115.6512 42.9696,112.6336 34.88,107.4432 C36.3104,107.6128 37.7664,107.6992 39.2416,107.6992 C47.8112,107.6992 55.6928,104.7744 61.952,99.872 C53.952,99.7248 47.1968,94.4384 44.8704,87.1712 C45.984,87.3824 47.1328,87.5008 48.3072,87.5008 C49.9744,87.5008 51.5936,87.2832 53.1264,86.864 C44.7616,85.1872 38.4608,77.7984 38.4608,68.9344 C38.4608,68.8576 38.4608,68.7776 38.464,68.704 C40.928,70.0704 43.7472,70.896 46.7424,70.9888 C41.84,67.7152 38.6112,62.1152 38.6112,55.7728 C38.6112,52.4192 39.5104,49.2768 41.0848,46.576 C50.0992,57.6416 63.5776,64.9184 78.7712,65.6864 C78.4576,64.3456 78.3008,62.9536 78.3008,61.5168 C78.3008,51.4208 86.4864,43.232 96.5824,43.232 C101.8432,43.232 106.5888,45.4528 109.9296,49.0048 C114.0992,48.1856 118.0032,46.6688 121.5456,44.5664 C120.1696,48.8384 117.28,52.4192 113.4944,54.6848 C117.1968,54.2432 120.7296,53.264 123.9968,51.808 C121.5584,55.4688 118.4576,58.6912 114.8832,61.2608 Z" id="Shape"></path>
                    </g>
                </g>
            </g>
        </g>
    </g>
</svg>