<?xml version="1.0" encoding="UTF-8"?>
<svg width="160px" height="160px" viewBox="0 0 160 160" version="1.1" xmlns="http://www.w3.org/2000/svg" xmlns:xlink="http://www.w3.org/1999/xlink">
    <!-- Generator: Sketch 50.2 (55047) - http://www.bohemiancoding.com/sketch -->
    <title>flaticon1531930695-svg</title>
    <desc>Created with Sketch.</desc>
    <defs></defs>
    <g id="Page-1" stroke="none" stroke-width="1" fill="none" fill-rule="evenodd">
        <g id="Desktop-Sketch" transform="translate(-880.000000, -6581.000000)" fill="#FFFFFF" fill-rule="nonzero">
            <g id="Footer" transform="translate(0.000000, 6466.000000)">
                <g id="Social-Media" transform="translate(360.000000, 115.000000)">
                    <g id="flaticon1531930695-svg" transform="translate(520.000000, 0.000000)">
                        <path d="M80,0 C35.819997,0 0,35.819997 0,80 C0,124.180003 35.819997,160 80,160 C124.180003,160 160,124.180003 160,80 C160,35.8101285 124.180003,0 80,0 Z M60,118.749979 L40,118.749979 L40,48.749815 L60,48.749815 L60,118.749979 Z M50.6199115,44.4599418 C45.4398921,44.4599418 41.2500206,40.2598727 41.2500206,35.0798533 C41.2500206,29.8998339 45.4500896,25.6997648 50.6199115,25.6997648 C55.7999309,25.7096334 60,29.9097025 60,35.0798533 C60,40.2598727 55.7999309,44.4599418 50.6199115,44.4599418 Z M129.999836,118.749979 L109.999836,118.749979 L109.999836,75.4699913 C109.999836,70.3998421 108.549812,66.8501127 102.319775,66.8501127 C91.9896709,66.8501127 89.9998355,75.4699913 89.9998355,75.4699913 L89.9998355,118.749979 L69.9998355,118.749979 L69.9998355,48.749815 L89.9998355,48.749815 L89.9998355,55.4397276 C92.859751,53.249889 99.999671,48.7596835 109.999836,48.7596835 C116.479876,48.7596835 129.999836,52.6396816 129.999836,76.0795408 L129.999836,118.749979 Z" id="Shape"></path>
                    </g>
                </g>
            </g>
        </g>
    </g>
</svg>