<svg xmlns="http://www.w3.org/2000/svg" xmlns:xlink="http://www.w3.org/1999/xlink" viewBox="0 0 393.29 137.81"><defs><style>.cls-1{fill:none;}.cls-2{fill:#ef3e59;}.cls-3,.cls-5,.cls-6,.cls-7{fill:#fff;}.cls-3{stroke:#fff;}.cls-3,.cls-5,.cls-6{stroke-miterlimit:10;}.cls-4{clip-path:url(#clip-path);}.cls-5{stroke:#1e272e;}.cls-6{stroke:#3ab76a;}.cls-8{fill:#3ab76a;}</style><clipPath id="clip-path"><rect class="cls-1" x="0.32" y="0.31" width="127.55" height="133.29"/></clipPath></defs><title>Asset 54</title><g id="Layer_2" data-name="Layer 2"><g id="Layer_1-2" data-name="Layer 1"><circle class="cls-2" cx="64.09" cy="66.96" r="32.72"/><path class="cls-3" d="M83.59,48.93a26.16,26.16,0,0,0-12.34-7.5c2.66,2.89,5.56,10.06,5.56,10.06a57.84,57.84,0,0,0,6.78-2.56Z"/><path class="cls-3" d="M53.72,82.11a26,26,0,0,0,3.56,7.12A11.18,11.18,0,0,0,61,92.65c.6.31,1.93.8,1.93.8s-.33-12.06,0-12.62-6.19.39-9.21,1a.93.93,0,0,0,0,.24Z"/><path class="cls-3" d="M53,79.59c.72.25,3.32-.55,5-.74s4.24,0,5-.37,0-9.79,0-10.34-11.2-.51-11.48,0S52,75.86,53,79.59Z"/><g class="cls-4"><path class="cls-3" d="M49.09,68.14H37.57c.28,5.6,5.2,15.51,5.39,14.9s5.11-2,7.73-3a53.23,53.23,0,0,1-1.6-11.89Z"/><path class="cls-3" d="M93,68.65c0,.4-.1.81-.14,1.21A28.94,28.94,0,0,1,65,95.8a27.22,27.22,0,0,1-15.63-4.06C40.6,86.33,35.86,78.43,35.27,68.17A27.11,27.11,0,0,1,39.36,52.1,28.39,28.39,0,0,1,59.12,38.54c1.08-.2,2.18-.3,3.28-.45h3.38a4.74,4.74,0,0,0,.49.1,27.39,27.39,0,0,1,12.69,4A28.47,28.47,0,0,1,92.51,62c.2,1.08.3,2.18.45,3.27v3.39ZM125.72,24.1C118.65,22,48.61.62,48.17.52a1.21,1.21,0,0,0-1.1.36L.64,67.41a.8.8,0,0,0,0,.9L49.58,133c-.48-.62.16.66,1.25.28l77-26.66-1.55-81.88S126.1,24.22,125.72,24.1Z"/></g><path class="cls-3" d="M53.65,52a39.12,39.12,0,0,0,9.26,1V40.53s-.55.14-.79.22a9.26,9.26,0,0,0-3.94,2.82,22.39,22.39,0,0,0-3.75,6.31c-.29.68-.52,1.39-.78,2.09Z"/><path class="cls-3" d="M50.68,53.88l-7.72-3c-3.28,4.33-6,14.41-5.39,14.9s11.16.43,11.53,0,.6-8.1,1.58-11.89Z"/><path class="cls-3" d="M51.44,65.78H62.91V55.54s-9.38-.47-10-1.12-1.45,7.46-1.49,11.36Z"/><path class="cls-3" d="M56.94,41.42c-4.8,1.33-12.31,6.45-12.3,7.46s5.12,2.31,6.75,2.57a27.44,27.44,0,0,1,5.55-10Z"/><path class="cls-3" d="M44.64,85C47.48,88.3,57,92.5,57,92.5s-4.39-6.38-5.65-10.08A31.93,31.93,0,0,0,44.64,85Z"/><path class="cls-3" d="M79.08,68.14A95.9,95.9,0,0,1,77.5,80c2.59,1,7,3.6,7.7,3,.69.09,6.63-14,5.32-14.88.71-.82-7.61,0-11.44,0Z"/><path class="cls-3" d="M77.49,53.88a52.51,52.51,0,0,1,1.6,11.9c3.85,0,10.61-.33,11.52,0s-2.1-10.56-5.39-14.91l-7.73,3Z"/><path class="cls-3" d="M71.25,92.49A26.23,26.23,0,0,0,83.58,85a31.92,31.92,0,0,0-6.77-2.56,27.66,27.66,0,0,1-5.56,10.07Z"/><path class="cls-3" d="M65.29,65.77H76.75a48.05,48.05,0,0,0-1.5-11.35l-10,1.12V65.77Z"/><path class="cls-3" d="M74.53,81.91c-2-.59-8.65-.91-9.26-1s0,12.44,0,12.44.43-.09.62-.15A9.11,9.11,0,0,0,70,90.35a22,22,0,0,0,3.76-6.3c.29-.7.52-1.42.78-2.14Z"/><path class="cls-3" d="M73.81,50a20.19,20.19,0,0,0-4.93-7.58,15.41,15.41,0,0,0-3.61-1.91V53.07c3.13-.07,9.29-1,9.29-1s-.49-1.36-.75-2Z"/><path class="cls-3" d="M76.75,68.14c0-.61-7.67,0-11.48,0,0,3.47-.64,9.57,0,10.23,1,.35,6.65.74,10,1.12a48.26,48.26,0,0,0,1.5-11.35Z"/><path class="cls-5" d="M91.53,110.66V110c1.52-12.7,4.57-25.11,6.81-37.68.87-4.88,1.86-9.75,2.8-14.63.33-1.73.38-1.82,2.14-2.06,4.54-.63,9.1-1.16,13.65-1.73,5.71-.72,11.41-1.47,17.12-2.13,7.1-.83,14.16-2.06,21.33-2.31,2-.06,2.05-.07,2.88,1.74,2.68,5.84,5.46,11.65,8.18,17.48,4.34,9.3,8.74,18.58,13.06,27.9a21.59,21.59,0,0,1,.78,2.8v.23a6.45,6.45,0,0,1-2.17,2.66c-1.43,1.16-2.69,2.5-4,3.77-3.07,2.93-6.18,5.81-9.27,8.72Q157.45,121.7,150,128.6c-2.75,2.56-5.41,5.2-8.24,7.66a9.9,9.9,0,0,1-1.72,1.05h-.45c-3.94-1.25-7.29-3.67-10.9-5.58-4.16-2.19-8.25-4.51-12.35-6.79-5.53-3.06-11.08-6.08-16.59-9.15-2.3-1.28-4.62-2.54-6.92-3.82A3,3,0,0,1,91.53,110.66Z"/><path class="cls-6" d="M138.07,77.29a1.86,1.86,0,0,0,.3,1.17q4,8.08,8,16.17c.27.53.45.87,1.23.73A2,2,0,0,1,150,96.61a.3.3,0,0,1,0,.3.68.68,0,0,1-.91-.06,2,2,0,0,0-2.56-.06.84.84,0,0,1-.74.09.77.77,0,0,1-.38-.33,6.55,6.55,0,0,0-.94-2.84c-2.31-4.61-4.64-9.2-6.88-13.83a1.21,1.21,0,0,0-1.41-.8,2,2,0,0,1-2-.58c-.23-.25-.72-.32-.55-.83a.76.76,0,0,1,0-.15.35.35,0,0,1-.05-.31c.37-.37.74-.24,1.11,0a1.88,1.88,0,0,0,2.29-.08c.31-.22.63-.41,1-.13A.3.3,0,0,1,138.07,77.29Z"/><path class="cls-6" d="M133.75,77.67c.21.17.55.15.69.45a6,6,0,0,1-.88,2.74c-2.3,5.16-4.58,10.34-6.87,15.5a5.83,5.83,0,0,0-.38,2.16.7.7,0,0,1-.35.37c-.14,0-.31.12-.43,0a2.67,2.67,0,0,0-3.11,0,.54.54,0,0,1-.69-.17.29.29,0,0,1,0-.32,2.32,2.32,0,0,1,2.22-1c.78.08,1-.27,1.29-.88q3.89-8.85,7.81-17.68C133.27,78.41,133.35,77.94,133.75,77.67Z"/><path class="cls-6" d="M125.85,98.7l.25-.26a24.4,24.4,0,0,0,4.44,0c4.18-.43,8.36-.86,12.55-1.24A3.05,3.05,0,0,0,145,96.5a.65.65,0,0,1,.74-.09l.25.26a4.46,4.46,0,0,1,0,2.75.42.42,0,0,1-.48.17c-.32-1.36-1.19-1.33-2.39-1.2-5,.57-10,1.09-15,1.41-1.45.09-1.25,1.17-1.78,1.82a.42.42,0,0,1-.48-.18A5.1,5.1,0,0,1,125.85,98.7Z"/><path class="cls-6" d="M138.07,77.29,138,77c-.4-.23-.33-.6-.34-1A1.8,1.8,0,0,0,135.9,74a1.88,1.88,0,0,0-1.82,2c0,.4.13.84-.28,1.14l-.06.34a2.66,2.66,0,0,1,.19-3.77,2.79,2.79,0,0,1,3.86-.07A2.59,2.59,0,0,1,138.07,77.29Z"/><path class="cls-6" d="M126.05,101.35l.25.27a2.73,2.73,0,0,1-4.07.79,2.68,2.68,0,0,1-.46-4l.06.34c.32.23.28.57.29.92.06,2,1.27,2.7,3,1.82C125.42,101.35,125.7,101.17,126.05,101.35Z"/><path class="cls-6" d="M145.52,99.59l.24-.28c.41-.21.7,0,1,.22a1.78,1.78,0,0,0,2.84-1.59c0-.38-.06-.76.34-1l.06-.34a2.56,2.56,0,0,1-.13,3.46,2.71,2.71,0,0,1-3.39.53A1.93,1.93,0,0,1,145.52,99.59Z"/><path class="cls-6" d="M145.71,96.41c-.42,1-1.29,1.2-2.3,1.29q-8.08.73-16.16,1.58c-.79.08-.73-.62-1.15-.84a1.23,1.23,0,0,1-.27-1.57c2.68-6,5.31-11.94,8-17.91.14-.32.16-.77.65-.84a2.29,2.29,0,0,0,2.33.32c.52-.2.77-.13,1,.4q4,8.2,8.1,16.39A1,1,0,0,1,145.71,96.41Z"/><path class="cls-6" d="M133.8,77.18c-.53-1.55-.23-2.73.89-3.4a2.15,2.15,0,0,1,2.63.15,2,2,0,0,1,.78,2.47A2.53,2.53,0,0,0,138,77C136.58,78.48,135.93,78.52,133.8,77.18Z"/><path class="cls-6" d="M150,97a2.67,2.67,0,0,1-.35,2.73c-1,1.2-2.47,1.06-3.87-.37a2.81,2.81,0,0,1,.2-2.64C147.56,95.37,148.57,95.45,150,97Z"/><path class="cls-6" d="M126.05,101.35c-1.54,1.57-2.93,1.59-4.14,0-.63-.83-.31-1.73-.08-2.61,2-1.27,2.51-1.28,4-.06A2.83,2.83,0,0,1,126.05,101.35Z"/><path class="cls-7" d="M198.66,66.35a3,3,0,0,0-.6,2v3.5h3.81a.93.93,0,0,1,.66.27.94.94,0,0,1,0,1.36.93.93,0,0,1-.66.27h-3.81V87.84a1,1,0,0,1-1,1,1,1,0,0,1-.73-.29,1,1,0,0,1-.29-.73V73.73h-2.48a.87.87,0,0,1-.68-.29,1,1,0,0,1,0-1.36,1,1,0,0,1,.68-.25H196v-3.5A4.37,4.37,0,0,1,197.26,65a4.66,4.66,0,0,1,3.32-1.17,5.39,5.39,0,0,1,1.77.29q.81.28.81.93a.93.93,0,0,1-.27.68.84.84,0,0,1-.61.27,2,2,0,0,1-.75-.17,5.11,5.11,0,0,0-1.19-.2A2.06,2.06,0,0,0,198.66,66.35Z"/><path class="cls-7" d="M220.67,79.87a1,1,0,0,1-.71.29H207.11a7.76,7.76,0,0,0,.83,3.65,6.23,6.23,0,0,0,2.38,2.55,6.86,6.86,0,0,0,3.65.94,6.24,6.24,0,0,0,2.93-.68A6,6,0,0,0,219,84.88a1.17,1.17,0,0,1,.72-.3.93.93,0,0,1,.88.88,1,1,0,0,1-.34.72,8.45,8.45,0,0,1-2.74,2.17,7.46,7.46,0,0,1-3.48.85,9.31,9.31,0,0,1-4.63-1.12,8,8,0,0,1-3.12-3.14,9.48,9.48,0,0,1-1.13-4.68,10.27,10.27,0,0,1,1.11-4.88,8,8,0,0,1,2.94-3.19,7.43,7.43,0,0,1,3.91-1.11,8.08,8.08,0,0,1,3.83,1,7.6,7.6,0,0,1,2.9,2.79A8.34,8.34,0,0,1,221,79.17.91.91,0,0,1,220.67,79.87Zm-11.23-5.46a6.24,6.24,0,0,0-2.16,3.91h11.59v-.27a5.31,5.31,0,0,0-1-2.67,5.47,5.47,0,0,0-2.12-1.73,6.13,6.13,0,0,0-2.64-.6A5.73,5.73,0,0,0,209.44,74.41Z"/><path class="cls-7" d="M227.15,88.57a1,1,0,0,1-.73.29,1,1,0,0,1-1-1V64.72a1,1,0,0,1,.29-.73,1,1,0,0,1,.73-.29,1,1,0,0,1,1,1V87.84A1,1,0,0,1,227.15,88.57Z"/><path class="cls-7" d="M232.91,68.58a1.16,1.16,0,0,1-.37-.93v-.34a1.16,1.16,0,0,1,.39-.94,1.66,1.66,0,0,1,1.07-.32c.91,0,1.36.42,1.36,1.26v.34a1.18,1.18,0,0,1-.36.93,1.45,1.45,0,0,1-1,.32A1.54,1.54,0,0,1,232.91,68.58Zm1.79,20a1,1,0,0,1-.73.29,1,1,0,0,1-1-1V72.2a1,1,0,0,1,.29-.73,1,1,0,0,1,.73-.29,1,1,0,0,1,.73.29,1,1,0,0,1,.29.73V87.84A1,1,0,0,1,234.7,88.57Z"/><path class="cls-7" d="M252.9,87.94a1.06,1.06,0,0,1-.3.74,1,1,0,0,1-.72.32,1.08,1.08,0,0,1-.85-.48l-5.2-6.73-5.2,6.77a1,1,0,0,1-.82.4,1,1,0,0,1-.68-.25.83.83,0,0,1-.3-.66,1,1,0,0,1,.24-.65l5.57-7.14L239,73a1,1,0,0,1-.2-.61,1,1,0,0,1,.32-.72,1.06,1.06,0,0,1,.73-.3,1,1,0,0,1,.82.44l5.3,6.83,5.1-6.83a1,1,0,0,1,.85-.44.94.94,0,0,1,.7.25.86.86,0,0,1,.26.63,1,1,0,0,1-.24.65l-5.51,7.24,5.58,7.24A1,1,0,0,1,252.9,87.94Z"/><path class="cls-8" d="M281,73.24a8,8,0,0,1,1.45,5v9.62a1,1,0,1,1-2,0V78.32a5.84,5.84,0,0,0-1.08-3.65A3.88,3.88,0,0,0,276,73.26a5.78,5.78,0,0,0-4.76,2.53,4.49,4.49,0,0,0-.78,2.53v9.52a1,1,0,0,1-.29.73,1,1,0,0,1-.73.29,1,1,0,0,1-1-1V78.22a5.9,5.9,0,0,0-1-3.59,3.74,3.74,0,0,0-3.2-1.37,5.29,5.29,0,0,0-2.63.68,5.6,5.6,0,0,0-2,1.82,4.33,4.33,0,0,0-.76,2.46v9.62a1,1,0,1,1-2,0V72.61a1,1,0,0,1,.28-.73,1.08,1.08,0,0,1,1.47,0,1,1,0,0,1,.29.73v2a7.27,7.27,0,0,1,2.48-2.31,6.43,6.43,0,0,1,3.3-.92,6.05,6.05,0,0,1,3.4,1,5.26,5.26,0,0,1,2,2.79,6.29,6.29,0,0,1,2.61-2.62,7.58,7.58,0,0,1,3.85-1.12A5.3,5.3,0,0,1,281,73.24Z"/><path class="cls-8" d="M302.59,71.79a1,1,0,0,1,.29.75v15.3a1,1,0,0,1-1,1,1,1,0,0,1-.73-.29,1,1,0,0,1-.29-.73V85.56a7,7,0,0,1-2.55,2.59,6.91,6.91,0,0,1-3.7,1,7.27,7.27,0,0,1-4.1-1.19,8.26,8.26,0,0,1-2.86-3.26,10.29,10.29,0,0,1-1-4.66,10.06,10.06,0,0,1,1-4.64,8.07,8.07,0,0,1,2.87-3.21,7.4,7.4,0,0,1,4-1.16,7.29,7.29,0,0,1,3.74,1,6.33,6.33,0,0,1,2.55,2.58V72.54a1.08,1.08,0,0,1,.29-.75,1,1,0,0,1,.73-.3A1,1,0,0,1,302.59,71.79ZM298,86.36a6.28,6.28,0,0,0,2.21-2.58,8.39,8.39,0,0,0,.8-3.69,8.09,8.09,0,0,0-.8-3.6A6.32,6.32,0,0,0,298,73.92a5.66,5.66,0,0,0-3.18-.94,5.72,5.72,0,0,0-3.18.92,6.23,6.23,0,0,0-2.21,2.54,8.13,8.13,0,0,0-.8,3.65,8.53,8.53,0,0,0,.78,3.69,6.26,6.26,0,0,0,2.2,2.58,5.9,5.9,0,0,0,6.39,0Z"/><path class="cls-8" d="M323.06,64a1,1,0,0,1,.29.73V87.84a1,1,0,0,1-.29.73,1.06,1.06,0,0,1-1.46,0,1,1,0,0,1-.29-.73V85.46a7.26,7.26,0,0,1-2.53,2.65,6.7,6.7,0,0,1-3.73,1.09A7.35,7.35,0,0,1,311,88a8.18,8.18,0,0,1-2.87-3.25,10.69,10.69,0,0,1,0-9.28A8.18,8.18,0,0,1,311,72.25a7.3,7.3,0,0,1,4-1.17,7.17,7.17,0,0,1,3.71,1,6.92,6.92,0,0,1,2.58,2.6v-10a1,1,0,0,1,1.75-.73Zm-4.62,22.39a6.26,6.26,0,0,0,2.21-2.57,8.39,8.39,0,0,0,.8-3.69,8.16,8.16,0,0,0-.8-3.63,6.39,6.39,0,0,0-2.21-2.57,5.85,5.85,0,0,0-6.36,0,6.32,6.32,0,0,0-2.21,2.57,8.16,8.16,0,0,0-.8,3.63,8.32,8.32,0,0,0,.8,3.68,6.35,6.35,0,0,0,2.21,2.56,5.58,5.58,0,0,0,3.18.94A5.72,5.72,0,0,0,318.44,86.38Z"/><path class="cls-8" d="M343.07,79.87a1,1,0,0,1-.71.29H329.5a7.76,7.76,0,0,0,.84,3.65,6.23,6.23,0,0,0,2.38,2.55,6.86,6.86,0,0,0,3.65.94,6.24,6.24,0,0,0,2.93-.68,6,6,0,0,0,2.07-1.74,1.17,1.17,0,0,1,.71-.3.92.92,0,0,1,.89.88,1,1,0,0,1-.34.72,8.56,8.56,0,0,1-2.74,2.17,7.46,7.46,0,0,1-3.48.85,9.31,9.31,0,0,1-4.63-1.12,8.08,8.08,0,0,1-3.13-3.14,9.58,9.58,0,0,1-1.12-4.68,10.27,10.27,0,0,1,1.11-4.88,7.91,7.91,0,0,1,2.94-3.19,7.43,7.43,0,0,1,3.91-1.11,8,8,0,0,1,3.82,1,7.62,7.62,0,0,1,2.91,2.79,8.44,8.44,0,0,1,1.16,4.35A.91.91,0,0,1,343.07,79.87Zm-11.24-5.46a6.33,6.33,0,0,0-2.16,3.91h11.6v-.27a5.4,5.4,0,0,0-1-2.67,5.5,5.5,0,0,0-2.13-1.73,6.12,6.12,0,0,0-2.63-.6A5.75,5.75,0,0,0,331.83,74.41Z"/><path class="cls-7" d="M371.82,73.24a8,8,0,0,1,1.44,5v9.62a1,1,0,0,1-1,1,1,1,0,0,1-.73-.29,1,1,0,0,1-.29-.73V78.32a5.9,5.9,0,0,0-1.07-3.65,3.89,3.89,0,0,0-3.31-1.41,5.75,5.75,0,0,0-4.76,2.53,4.42,4.42,0,0,0-.79,2.53v9.52a1,1,0,1,1-2,0V78.22a5.9,5.9,0,0,0-1-3.59A3.72,3.72,0,0,0,355,73.26a5.35,5.35,0,0,0-2.64.68,5.65,5.65,0,0,0-2,1.82,4.34,4.34,0,0,0-.77,2.46v9.62a1,1,0,0,1-1,1,1,1,0,0,1-.73-.29,1,1,0,0,1-.29-.73V72.61a1,1,0,0,1,1-1,1,1,0,0,1,.73.29,1,1,0,0,1,.29.73v2a7.36,7.36,0,0,1,2.48-2.31,6.48,6.48,0,0,1,3.3-.92,6,6,0,0,1,3.4,1,5.21,5.21,0,0,1,2,2.79,6.38,6.38,0,0,1,2.62-2.62,7.57,7.57,0,0,1,3.84-1.12A5.33,5.33,0,0,1,371.82,73.24Z"/><path class="cls-7" d="M393,79.87a1,1,0,0,1-.71.29H379.42a7.76,7.76,0,0,0,.83,3.65,6.23,6.23,0,0,0,2.38,2.55,6.86,6.86,0,0,0,3.65.94,6.24,6.24,0,0,0,2.93-.68,6,6,0,0,0,2.07-1.74,1.17,1.17,0,0,1,.72-.3.93.93,0,0,1,.88.88,1,1,0,0,1-.34.72,8.56,8.56,0,0,1-2.74,2.17,7.46,7.46,0,0,1-3.48.85,9.31,9.31,0,0,1-4.63-1.12,8,8,0,0,1-3.12-3.14,9.48,9.48,0,0,1-1.13-4.68,10.27,10.27,0,0,1,1.11-4.88,7.91,7.91,0,0,1,2.94-3.19,7.43,7.43,0,0,1,3.91-1.11,8,8,0,0,1,3.82,1,7.62,7.62,0,0,1,2.91,2.79,8.34,8.34,0,0,1,1.16,4.35A.91.91,0,0,1,393,79.87Zm-11.24-5.46a6.28,6.28,0,0,0-2.15,3.91h11.59v-.27a5.31,5.31,0,0,0-1-2.67A5.5,5.5,0,0,0,388,73.65a6.06,6.06,0,0,0-2.63-.6A5.77,5.77,0,0,0,381.74,74.41Z"/><path class="cls-7" d="M201.74,109a3.64,3.64,0,0,1-2.88-1.15,4.69,4.69,0,0,1-1-3.23,4.84,4.84,0,0,1,1-3.32,3.7,3.7,0,0,1,3-1.18,5.73,5.73,0,0,1,1.23.14,4.1,4.1,0,0,1,1,.31l-.4,1.1a6,6,0,0,0-.93-.28,4,4,0,0,0-.9-.12q-2.61,0-2.61,3.33a4,4,0,0,0,.63,2.42,2.22,2.22,0,0,0,1.89.85,6,6,0,0,0,2.2-.46v1.14A4.68,4.68,0,0,1,201.74,109Z"/><path class="cls-7" d="M209.84,100.14a5.37,5.37,0,0,1,1,.1l-.18,1.2a4.39,4.39,0,0,0-.94-.12,2.3,2.3,0,0,0-1.78.85,3.08,3.08,0,0,0-.74,2.1v4.59h-1.29V100.3H207l.15,1.59h.06a3.63,3.63,0,0,1,1.15-1.29A2.58,2.58,0,0,1,209.84,100.14Z"/><path class="cls-7" d="M216.09,109a3.94,3.94,0,0,1-3-1.16,4.48,4.48,0,0,1-1.1-3.21,5,5,0,0,1,1-3.29,3.39,3.39,0,0,1,2.74-1.22,3.27,3.27,0,0,1,2.55,1.06,4.1,4.1,0,0,1,.93,2.8v.82h-5.89a3.35,3.35,0,0,0,.76,2.29,2.63,2.63,0,0,0,2,.78,7.06,7.06,0,0,0,2.74-.58v1.15a7.3,7.3,0,0,1-1.3.43A7.08,7.08,0,0,1,216.09,109Zm-.36-7.79a2.11,2.11,0,0,0-1.64.67,3.08,3.08,0,0,0-.72,1.86h4.47a2.89,2.89,0,0,0-.54-1.88A2,2,0,0,0,215.73,101.23Z"/><path class="cls-7" d="M226.71,108.86l-.26-1.22h-.06a3.55,3.55,0,0,1-1.28,1.09,3.86,3.86,0,0,1-1.59.29,2.83,2.83,0,0,1-2-.66,2.35,2.35,0,0,1-.73-1.86c0-1.73,1.39-2.64,4.15-2.72l1.46,0v-.53a2.17,2.17,0,0,0-.44-1.49,1.78,1.78,0,0,0-1.38-.48,5.63,5.63,0,0,0-2.43.66l-.39-1a6.4,6.4,0,0,1,2.89-.73,3.28,3.28,0,0,1,2.27.68,2.8,2.8,0,0,1,.74,2.18v5.84Zm-2.93-.91a2.59,2.59,0,0,0,1.9-.67,2.44,2.44,0,0,0,.69-1.85v-.78l-1.29.06a4.55,4.55,0,0,0-2.23.48,1.43,1.43,0,0,0-.69,1.32,1.31,1.31,0,0,0,.43,1.07A1.73,1.73,0,0,0,223.78,108Z"/><path class="cls-7" d="M233.11,108a4.65,4.65,0,0,0,.66,0,4.22,4.22,0,0,0,.51-.11v1a2.15,2.15,0,0,1-.62.17,4.08,4.08,0,0,1-.74.07c-1.65,0-2.48-.87-2.48-2.62v-5.09h-1.23v-.63l1.23-.54.54-1.82h.75v2h2.49v1h-2.49v5a1.74,1.74,0,0,0,.37,1.18A1.28,1.28,0,0,0,233.11,108Z"/><path class="cls-7" d="M235.88,98a.84.84,0,0,1,.22-.65.77.77,0,0,1,.55-.21.78.78,0,0,1,.54.21,1.07,1.07,0,0,1,0,1.3.75.75,0,0,1-.54.22.74.74,0,0,1-.55-.22A.85.85,0,0,1,235.88,98Zm1.41,10.88H236V100.3h1.3Z"/><path class="cls-7" d="M241.91,108.86l-3.25-8.56h1.39l1.85,5.08c.41,1.19.66,2,.73,2.31h.07a13.62,13.62,0,0,1,.54-1.71c.3-.87,1-2.76,2-5.68h1.39l-3.25,8.56Z"/><path class="cls-7" d="M251.67,109a3.93,3.93,0,0,1-3-1.16,4.44,4.44,0,0,1-1.1-3.21,5,5,0,0,1,1-3.29,3.39,3.39,0,0,1,2.74-1.22,3.23,3.23,0,0,1,2.54,1.06,4.05,4.05,0,0,1,.94,2.8v.82h-5.9a3.45,3.45,0,0,0,.76,2.29,2.64,2.64,0,0,0,2,.78,7,7,0,0,0,2.73-.58v1.15a6.17,6.17,0,0,1-2.78.56Zm-.35-7.79a2.08,2.08,0,0,0-1.64.67,3.15,3.15,0,0,0-.73,1.86h4.48a2.83,2.83,0,0,0-.55-1.88A1.92,1.92,0,0,0,251.32,101.23Z"/><path class="cls-7" d="M268.18,108.86l-1.57-5c-.1-.31-.29-1-.56-2.09H266c-.21.91-.39,1.61-.54,2.11l-1.62,5h-1.5L260,100.3h1.36q.82,3.23,1.26,4.91a19.9,19.9,0,0,1,.5,2.28h.06c.06-.3.15-.68.28-1.15s.24-.85.33-1.13l1.57-4.91h1.41l1.53,4.91a16.28,16.28,0,0,1,.59,2.26H269a5.87,5.87,0,0,1,.16-.86c.09-.4.64-2.5,1.63-6.31h1.35l-2.37,8.56Z"/><path class="cls-7" d="M277.25,109a3.94,3.94,0,0,1-3-1.16,4.48,4.48,0,0,1-1.09-3.21,5,5,0,0,1,1-3.29,3.39,3.39,0,0,1,2.73-1.22,3.24,3.24,0,0,1,2.55,1.06,4.05,4.05,0,0,1,.94,2.8v.82h-5.9a3.45,3.45,0,0,0,.76,2.29,2.64,2.64,0,0,0,2,.78,7,7,0,0,0,2.73-.58v1.15a6.17,6.17,0,0,1-2.78.56Zm-.35-7.79a2.12,2.12,0,0,0-1.65.67,3.08,3.08,0,0,0-.72,1.86H279a2.89,2.89,0,0,0-.55-1.88A1.94,1.94,0,0,0,276.9,101.23Z"/><path class="cls-7" d="M286.59,100.16a3.16,3.16,0,0,1,2.62,1.15,5,5,0,0,1,.94,3.26,5.14,5.14,0,0,1-.94,3.28,3.18,3.18,0,0,1-2.62,1.17,3.59,3.59,0,0,1-1.52-.31,2.87,2.87,0,0,1-1.16-.95h-.1l-.27,1.1h-.93V96.71h1.3v3c0,.66,0,1.25-.07,1.78h.07A3.08,3.08,0,0,1,286.59,100.16Zm-.18,1.09a2.26,2.26,0,0,0-1.92.76,5.91,5.91,0,0,0,0,5.15,2.3,2.3,0,0,0,1.93.77,2,2,0,0,0,1.78-.87,4.47,4.47,0,0,0,.58-2.5,4.28,4.28,0,0,0-.58-2.49A2.07,2.07,0,0,0,286.41,101.25Z"/><path class="cls-7" d="M297.94,106.53a2.15,2.15,0,0,1-.89,1.84,4.22,4.22,0,0,1-2.5.65,5.44,5.44,0,0,1-2.66-.54v-1.2a6.3,6.3,0,0,0,1.32.49,5.61,5.61,0,0,0,1.37.18,3,3,0,0,0,1.56-.33,1.07,1.07,0,0,0,.55-1,1.08,1.08,0,0,0-.44-.86,6.59,6.59,0,0,0-1.69-.84,9.14,9.14,0,0,1-1.7-.78,2.43,2.43,0,0,1-.75-.75,2,2,0,0,1-.24-1,1.9,1.9,0,0,1,.85-1.65,4,4,0,0,1,2.33-.61,6.76,6.76,0,0,1,2.71.57l-.46,1.05a6.3,6.3,0,0,0-2.34-.53,2.72,2.72,0,0,0-1.39.29.9.9,0,0,0-.47.8.93.93,0,0,0,.18.58,1.59,1.59,0,0,0,.56.46,12.24,12.24,0,0,0,1.5.64,5.69,5.69,0,0,1,2.06,1.11A2,2,0,0,1,297.94,106.53Z"/><path class="cls-7" d="M299.94,98a.84.84,0,0,1,.22-.65.73.73,0,0,1,.54-.21.76.76,0,0,1,.54.21,1,1,0,0,1,0,1.3.73.73,0,0,1-.54.22.7.7,0,0,1-.54-.22A.85.85,0,0,1,299.94,98Zm1.4,10.88h-1.29V100.3h1.29Z"/><path class="cls-7" d="M306.86,108a4.65,4.65,0,0,0,.66,0,4.22,4.22,0,0,0,.51-.11v1a2.15,2.15,0,0,1-.62.17,4.08,4.08,0,0,1-.74.07c-1.65,0-2.48-.87-2.48-2.62v-5.09H303v-.63l1.23-.54.54-1.82h.75v2H308v1h-2.49v5a1.74,1.74,0,0,0,.37,1.18A1.28,1.28,0,0,0,306.86,108Z"/><path class="cls-7" d="M313.36,109a3.94,3.94,0,0,1-3-1.16,4.48,4.48,0,0,1-1.09-3.21,5,5,0,0,1,1-3.29,3.41,3.41,0,0,1,2.74-1.22,3.24,3.24,0,0,1,2.55,1.06,4.05,4.05,0,0,1,.94,2.8v.82h-5.9a3.4,3.4,0,0,0,.76,2.29,2.64,2.64,0,0,0,2,.78,7,7,0,0,0,2.73-.58v1.15a6.17,6.17,0,0,1-2.78.56Zm-.35-7.79a2.12,2.12,0,0,0-1.65.67,3.08,3.08,0,0,0-.72,1.86h4.48a2.89,2.89,0,0,0-.55-1.88A2,2,0,0,0,313,101.23Z"/><path class="cls-7" d="M328.4,106.53a2.15,2.15,0,0,1-.89,1.84,4.22,4.22,0,0,1-2.5.65,5.44,5.44,0,0,1-2.66-.54v-1.2a6.18,6.18,0,0,0,1.33.49A5.47,5.47,0,0,0,325,108a3,3,0,0,0,1.56-.33,1.07,1.07,0,0,0,.55-1,1.08,1.08,0,0,0-.44-.86,6.42,6.42,0,0,0-1.69-.84,9.14,9.14,0,0,1-1.7-.78,2.43,2.43,0,0,1-.75-.75,2,2,0,0,1-.24-1,1.9,1.9,0,0,1,.85-1.65,4,4,0,0,1,2.34-.61,6.75,6.75,0,0,1,2.7.57l-.46,1.05a6.3,6.3,0,0,0-2.34-.53,2.72,2.72,0,0,0-1.39.29.9.9,0,0,0-.47.8.93.93,0,0,0,.18.58,1.68,1.68,0,0,0,.56.46,12.24,12.24,0,0,0,1.5.64,5.6,5.6,0,0,1,2.06,1.11A2,2,0,0,1,328.4,106.53Z"/><path class="cls-7" d="M337.9,104.57a4.68,4.68,0,0,1-1.06,3.27,3.68,3.68,0,0,1-2.91,1.18,3.84,3.84,0,0,1-2-.54,3.52,3.52,0,0,1-1.37-1.55,5.26,5.26,0,0,1-.49-2.36,4.71,4.71,0,0,1,1.05-3.26,3.69,3.69,0,0,1,2.9-1.17,3.63,3.63,0,0,1,2.86,1.2A4.72,4.72,0,0,1,337.9,104.57Zm-6.53,0a4,4,0,0,0,.66,2.5,2.61,2.61,0,0,0,3.86,0,4.06,4.06,0,0,0,.66-2.51,4,4,0,0,0-.66-2.48,2.32,2.32,0,0,0-1.94-.84,2.28,2.28,0,0,0-1.93.83A4,4,0,0,0,331.37,104.57Z"/><path class="cls-7" d="M341.47,108.86h-1.3V96.71h1.3Z"/><path class="cls-7" d="M345.44,100.3v5.56a2.29,2.29,0,0,0,.47,1.56,2,2,0,0,0,1.5.51,2.42,2.42,0,0,0,2-.73,3.73,3.73,0,0,0,.62-2.4v-4.5h1.3v8.56h-1.07l-.19-1.15H350a2.47,2.47,0,0,1-1.1,1,3.67,3.67,0,0,1-1.62.34,3.3,3.3,0,0,1-2.34-.74,3.17,3.17,0,0,1-.78-2.38v-5.6Z"/><path class="cls-7" d="M356.8,108a4.91,4.91,0,0,0,.67,0c.21,0,.38-.07.51-.11v1a2.15,2.15,0,0,1-.62.17,4.16,4.16,0,0,1-.74.07c-1.66,0-2.49-.87-2.49-2.62v-5.09h-1.22v-.63l1.22-.54.55-1.82h.75v2h2.48v1h-2.48v5a1.69,1.69,0,0,0,.37,1.18A1.26,1.26,0,0,0,356.8,108Z"/><path class="cls-7" d="M359.58,98a.84.84,0,0,1,.22-.65.73.73,0,0,1,.54-.21.76.76,0,0,1,.54.21,1,1,0,0,1,0,1.3.73.73,0,0,1-.54.22.7.7,0,0,1-.54-.22A.85.85,0,0,1,359.58,98Zm1.4,10.88h-1.29V100.3H361Z"/><path class="cls-7" d="M371.12,104.57a4.72,4.72,0,0,1-1.05,3.27,3.7,3.7,0,0,1-2.91,1.18,3.84,3.84,0,0,1-2-.54,3.48,3.48,0,0,1-1.38-1.55,5.4,5.4,0,0,1-.48-2.36,4.76,4.76,0,0,1,1-3.26,3.71,3.71,0,0,1,2.91-1.17,3.63,3.63,0,0,1,2.86,1.2A4.72,4.72,0,0,1,371.12,104.57Zm-6.52,0a4,4,0,0,0,.66,2.5,2.26,2.26,0,0,0,1.93.86,2.29,2.29,0,0,0,1.93-.85,4.06,4.06,0,0,0,.66-2.51,4,4,0,0,0-.66-2.48,2.33,2.33,0,0,0-1.95-.84,2.26,2.26,0,0,0-1.92.83A4,4,0,0,0,364.6,104.57Z"/><path class="cls-7" d="M379.26,108.86v-5.54a2.24,2.24,0,0,0-.48-1.56,2,2,0,0,0-1.49-.51,2.47,2.47,0,0,0-2,.72,3.67,3.67,0,0,0-.62,2.4v4.49h-1.3V100.3h1.05l.21,1.17h.07a2.59,2.59,0,0,1,1.11-1,3.69,3.69,0,0,1,1.61-.35,3.22,3.22,0,0,1,2.32.75,3.18,3.18,0,0,1,.78,2.39v5.58Z"/><path class="cls-7" d="M388.74,106.53a2.13,2.13,0,0,1-.89,1.84,4.2,4.2,0,0,1-2.5.65,5.38,5.38,0,0,1-2.65-.54v-1.2a6.3,6.3,0,0,0,1.32.49,5.53,5.53,0,0,0,1.36.18,3.08,3.08,0,0,0,1.57-.33,1.06,1.06,0,0,0,.54-1,1.07,1.07,0,0,0-.43-.86,6.77,6.77,0,0,0-1.69-.84,8.54,8.54,0,0,1-1.7-.78,2.23,2.23,0,0,1-.75-.75,2.07,2.07,0,0,1,.6-2.66,4,4,0,0,1,2.34-.61,6.75,6.75,0,0,1,2.7.57l-.46,1.05a6.29,6.29,0,0,0-2.33-.53,2.76,2.76,0,0,0-1.4.29.89.89,0,0,0-.46.8.93.93,0,0,0,.17.58,1.73,1.73,0,0,0,.57.46,12.24,12.24,0,0,0,1.5.64,5.78,5.78,0,0,1,2.06,1.11A2,2,0,0,1,388.74,106.53Z"/></g></g></svg>