<svg xmlns="http://www.w3.org/2000/svg" xmlns:xlink="http://www.w3.org/1999/xlink" viewBox="0 0 180.28 137.31"><defs><style>.cls-1{fill:none;}.cls-2{fill:#ef3e59;}.cls-3,.cls-4,.cls-6,.cls-7{fill:#1e272e;}.cls-3{stroke:#1e272e;}.cls-3,.cls-6,.cls-7{stroke-miterlimit:10;}.cls-5{clip-path:url(#clip-path);}.cls-6{stroke:#fff;}.cls-7{stroke:#3ab76a;}</style><clipPath id="clip-path" transform="translate(-0.18 -0.19)"><rect class="cls-1" width="127.55" height="133.29"/></clipPath></defs><title>Asset 58</title><g id="Layer_2" data-name="Layer 2"><g id="Layer_1-2" data-name="Layer 1"><circle class="cls-2" cx="63.59" cy="66.46" r="32.72"/><path class="cls-3" d="M83.27,48.62a26.16,26.16,0,0,0-12.34-7.5C73.6,44,76.49,51.18,76.49,51.18a57.84,57.84,0,0,0,6.78-2.56Z" transform="translate(-0.18 -0.19)"/><path class="cls-3" d="M53.4,81.8A26,26,0,0,0,57,88.92a11.15,11.15,0,0,0,3.69,3.41c.6.32,1.94.81,1.94.81s-.34-12.06,0-12.62-6.19.39-9.22,1a1.85,1.85,0,0,0,0,.24Z" transform="translate(-0.18 -0.19)"/><path class="cls-4" d="M52.65,79.28c.72.25,3.33-.56,5-.74s4.25,0,5-.37,0-9.79,0-10.34-11.2-.51-11.49,0,.56,7.72,1.54,11.45Z" transform="translate(-0.18 -0.19)"/><g class="cls-5"><path class="cls-3" d="M48.77,67.82H37.25c.29,5.61,5.2,15.52,5.39,14.91s5.11-2,7.73-3a53.24,53.24,0,0,1-1.6-11.9Z" transform="translate(-0.18 -0.19)"/><path class="cls-4" d="M92.64,68.34c0,.4-.09.81-.14,1.21A28.94,28.94,0,0,1,64.65,95.49,27.18,27.18,0,0,1,49,91.42C40.28,86,35.55,78.12,35,67.86A27.19,27.19,0,0,1,39,51.79,28.39,28.39,0,0,1,58.8,38.23c1.08-.2,2.19-.3,3.28-.45h3.39c.16,0,.32.08.49.1a27.46,27.46,0,0,1,12.69,4A28.44,28.44,0,0,1,92.19,61.68c.2,1.08.3,2.18.45,3.27v3.39Zm32.77-44.55C118.33,21.64,48.3.31,47.85.21a1.23,1.23,0,0,0-1.1.36L.32,67.1a.78.78,0,0,0,0,.9l48.93,64.72c-.47-.62.17.66,1.25.28l77-26.66L126,24.46S125.78,23.91,125.41,23.79Z" transform="translate(-0.18 -0.19)"/></g><path class="cls-3" d="M53.34,51.66a39,39,0,0,0,9.25,1V40.22s-.55.13-.79.22a9.17,9.17,0,0,0-3.93,2.82,22.27,22.27,0,0,0-3.76,6.3c-.28.69-.52,1.4-.77,2.1Z" transform="translate(-0.18 -0.19)"/><path class="cls-3" d="M50.37,53.57l-7.73-3c-3.28,4.33-6,14.41-5.39,14.9s11.16.43,11.53,0,.61-8.1,1.59-11.89Z" transform="translate(-0.18 -0.19)"/><path class="cls-3" d="M51.12,65.47H62.59V55.23s-9.38-.47-10-1.12-1.46,7.46-1.5,11.36Z" transform="translate(-0.18 -0.19)"/><path class="cls-3" d="M56.62,41.11c-4.8,1.33-12.31,6.45-12.3,7.46s5.13,2.31,6.75,2.57a27.35,27.35,0,0,1,5.55-10Z" transform="translate(-0.18 -0.19)"/><path class="cls-3" d="M44.33,84.65C47.16,88,56.7,92.19,56.7,92.19s-4.38-6.38-5.64-10.08a31.19,31.19,0,0,0-6.73,2.54Z" transform="translate(-0.18 -0.19)"/><path class="cls-3" d="M78.77,67.83a94.8,94.8,0,0,1-1.59,11.89c2.59,1,7,3.6,7.7,3,.7.09,6.63-14,5.32-14.88.72-.82-7.6,0-11.43,0Z" transform="translate(-0.18 -0.19)"/><path class="cls-3" d="M77.18,53.57a53.08,53.08,0,0,1,1.59,11.9c3.85,0,10.61-.34,11.53,0S88.19,54.9,84.91,50.56l-7.73,3Z" transform="translate(-0.18 -0.19)"/><path class="cls-3" d="M70.93,92.18a26.21,26.21,0,0,0,12.34-7.51,32,32,0,0,0-6.78-2.56,27.59,27.59,0,0,1-5.56,10.07Z" transform="translate(-0.18 -0.19)"/><path class="cls-3" d="M65,65.46H76.43a47.47,47.47,0,0,0-1.5-11.35L65,55.23V65.46Z" transform="translate(-0.18 -0.19)"/><path class="cls-3" d="M74.22,81.6c-2.06-.6-8.66-.91-9.27-1s0,12.44,0,12.44.43-.09.63-.15A9.1,9.1,0,0,0,69.67,90a22.27,22.27,0,0,0,3.76-6.3c.29-.7.53-1.42.79-2.14Z" transform="translate(-0.18 -0.19)"/><path class="cls-3" d="M73.49,49.72a20.28,20.28,0,0,0-4.92-7.58A15.41,15.41,0,0,0,65,40.23V52.76c3.13-.07,9.29-1,9.29-1s-.49-1.36-.75-2Z" transform="translate(-0.18 -0.19)"/><path class="cls-3" d="M76.43,67.83c0-.62-7.67,0-11.48,0,0,3.46-.64,9.57,0,10.23,1,.35,6.65.74,10,1.12a47.24,47.24,0,0,0,1.5-11.35Z" transform="translate(-0.18 -0.19)"/><path class="cls-6" d="M91.21,110.35v-.67C92.73,97,95.78,84.57,98,72c.87-4.89,1.86-9.75,2.8-14.63.34-1.73.38-1.82,2.14-2.06,4.54-.63,9.1-1.16,13.65-1.73,5.71-.72,11.41-1.47,17.13-2.13,7.1-.83,14.15-2.06,21.32-2.31,2-.07,2.06-.07,2.88,1.74,2.69,5.84,5.46,11.65,8.18,17.48,4.34,9.3,8.74,18.58,13.06,27.9a19.73,19.73,0,0,1,.78,2.8v.23a6.38,6.38,0,0,1-2.17,2.66c-1.42,1.16-2.69,2.5-4,3.77-3.07,2.92-6.18,5.81-9.27,8.71q-7.37,6.94-14.78,13.86c-2.74,2.55-5.41,5.19-8.24,7.66a9.83,9.83,0,0,1-1.71,1.05h-.45c-3.95-1.25-7.3-3.67-10.91-5.58-4.15-2.19-8.24-4.51-12.35-6.79-5.52-3.06-11.07-6.08-16.59-9.16-2.3-1.27-4.61-2.53-6.91-3.81A3,3,0,0,1,91.21,110.35Z" transform="translate(-0.18 -0.19)"/><path class="cls-7" d="M137.76,77a1.79,1.79,0,0,0,.29,1.17q4,8.09,8,16.16c.26.54.44.88,1.23.74a2,2,0,0,1,2.46,1.25.32.32,0,0,1,0,.3.68.68,0,0,1-.91-.06,2,2,0,0,0-2.55-.06.86.86,0,0,1-.75.09.81.81,0,0,1-.38-.33,6.26,6.26,0,0,0-.94-2.84c-2.3-4.61-4.64-9.2-6.88-13.83a1.2,1.2,0,0,0-1.4-.8,2.05,2.05,0,0,1-2-.58c-.23-.25-.72-.33-.55-.84a.76.76,0,0,1,0-.15.31.31,0,0,1,0-.31c.36-.37.74-.23,1.11,0a1.86,1.86,0,0,0,2.28-.08c.31-.22.64-.41,1-.14A.29.29,0,0,1,137.76,77Z" transform="translate(-0.18 -0.19)"/><path class="cls-7" d="M133.43,77.35c.22.18.56.16.69.46a5.8,5.8,0,0,1-.88,2.74c-2.3,5.16-4.57,10.33-6.87,15.5a5.59,5.59,0,0,0-.37,2.16.76.76,0,0,1-.36.37c-.14,0-.31.12-.43,0a2.66,2.66,0,0,0-3.1,0,.54.54,0,0,1-.7-.18.29.29,0,0,1,0-.31,2.34,2.34,0,0,1,2.23-1c.77.08,1-.28,1.29-.88q3.87-8.85,7.8-17.68C133,78.1,133,77.63,133.43,77.35Z" transform="translate(-0.18 -0.19)"/><path class="cls-7" d="M125.54,98.39l.24-.26a23.64,23.64,0,0,0,4.45,0c4.18-.43,8.36-.85,12.54-1.23a3.12,3.12,0,0,0,1.89-.66.66.66,0,0,1,.74-.1l.24.26a4.49,4.49,0,0,1,0,2.76.43.43,0,0,1-.48.17c-.32-1.36-1.18-1.33-2.38-1.2-5,.57-10,1.09-15,1.4-1.46.1-1.25,1.18-1.79,1.83a.4.4,0,0,1-.47-.18A5.1,5.1,0,0,1,125.54,98.39Z" transform="translate(-0.18 -0.19)"/><path class="cls-7" d="M137.76,77l-.06-.34c-.41-.23-.33-.6-.35-1a1.78,1.78,0,0,0-1.76-1.93,1.87,1.87,0,0,0-1.82,2c0,.4.12.84-.29,1.14l-.06.33a2.66,2.66,0,0,1,.2-3.76,2.77,2.77,0,0,1,3.85-.07A2.6,2.6,0,0,1,137.76,77Z" transform="translate(-0.18 -0.19)"/><path class="cls-7" d="M125.73,101l.25.28a2.73,2.73,0,0,1-4.07.79,2.69,2.69,0,0,1-.46-4l.06.34c.32.23.28.57.29.92.06,2,1.27,2.7,3,1.82C125.1,101,125.38,100.86,125.73,101Z" transform="translate(-0.18 -0.19)"/><path class="cls-7" d="M145.2,99.28l.24-.28c.41-.21.71,0,1,.22,1.5.77,2.76.07,2.84-1.59,0-.38-.06-.76.35-1l.06-.34c1,1,.7,2.36-.14,3.46a2.71,2.71,0,0,1-3.39.53A2,2,0,0,1,145.2,99.28Z" transform="translate(-0.18 -0.19)"/><path class="cls-7" d="M145.4,96.09c-.42,1-1.29,1.21-2.31,1.3Q135,98.13,126.93,99c-.78.08-.73-.62-1.15-.84a1.22,1.22,0,0,1-.26-1.57c2.68-6,5.3-11.94,8-17.92.14-.31.16-.77.65-.83a2.3,2.3,0,0,0,2.33.32c.52-.2.78-.13,1,.4q4,8.2,8.11,16.39A1,1,0,0,1,145.4,96.09Z" transform="translate(-0.18 -0.19)"/><path class="cls-7" d="M133.48,76.87c-.53-1.55-.23-2.73.9-3.4a2.11,2.11,0,0,1,2.62.15,2,2,0,0,1,.78,2.47,2.52,2.52,0,0,0-.08.55C136.27,78.17,135.61,78.2,133.48,76.87Z" transform="translate(-0.18 -0.19)"/><path class="cls-7" d="M149.67,96.64a2.63,2.63,0,0,1-.36,2.72c-1.05,1.21-2.47,1.07-3.87-.36a2.89,2.89,0,0,1,.2-2.65C147.25,95.06,148.25,95.13,149.67,96.64Z" transform="translate(-0.18 -0.19)"/><path class="cls-7" d="M125.73,101c-1.54,1.58-2.93,1.6-4.13,0-.64-.83-.32-1.73-.09-2.61,2-1.28,2.51-1.28,4-.06A2.81,2.81,0,0,1,125.73,101Z" transform="translate(-0.18 -0.19)"/></g></g></svg>