<svg xmlns="http://www.w3.org/2000/svg" xmlns:xlink="http://www.w3.org/1999/xlink" viewBox="0 0 200.7 193.57"><defs><style>.cls-1{fill:none}.cls-2{fill:#ef3e59}.cls-3,.cls-4,.cls-6,.cls-7{fill:#1e272e}.cls-3{stroke:#1e272e}.cls-3,.cls-6,.cls-7{stroke-miterlimit:10}.cls-5{clip-path:url(#clip-path)}.cls-6{stroke:#fff}.cls-7{stroke:#3ab76a}.cls-8{fill:#495460}.cls-9{fill:#3ab76a}</style><clipPath id="clip-path" transform="translate(0 -0.19)"><rect width="127.55" height="133.29" x="9.67" class="cls-1"/></clipPath></defs><title>Asset 59</title><g id="Layer_2" data-name="Layer 2"><g id="Layer_1-2" data-name="Layer 1"><circle cx="73.45" cy="66.46" r="32.72" class="cls-2"/><path d="M92.94,48.62a26.16,26.16,0,0,0-12.34-7.5c2.67,2.89,5.56,10.06,5.56,10.06a57.84,57.84,0,0,0,6.78-2.56Z" class="cls-3" transform="translate(0 -0.19)"/><path d="M63.07,81.8a26.25,26.25,0,0,0,3.56,7.12,11.25,11.25,0,0,0,3.69,3.41c.6.32,1.94.81,1.94.81s-.34-12.06,0-12.62-6.19.39-9.22,1a1.85,1.85,0,0,0,0,.24Z" class="cls-3" transform="translate(0 -0.19)"/><path d="M62.32,79.28c.72.25,3.33-.56,5-.74s4.25,0,5-.37,0-9.79,0-10.34-11.2-.51-11.48,0,.55,7.72,1.53,11.45Z" class="cls-4" transform="translate(0 -0.19)"/><g class="cls-5"><path d="M58.45,67.82H46.92c.29,5.61,5.21,15.52,5.4,14.91s5.11-2,7.72-3a52.66,52.66,0,0,1-1.59-11.9Z" class="cls-3" transform="translate(0 -0.19)"/><path d="M102.31,68.34c0,.4-.09.81-.14,1.21A28.94,28.94,0,0,1,74.32,95.49a27.18,27.18,0,0,1-15.64-4.07C50,86,45.22,78.12,44.63,67.86a27,27,0,0,1,4.09-16.07A28.37,28.37,0,0,1,68.47,38.23c1.09-.2,2.19-.3,3.28-.45h3.39c.16,0,.32.08.49.1a27.43,27.43,0,0,1,12.69,4,28.44,28.44,0,0,1,13.54,19.76c.2,1.08.3,2.18.45,3.27v3.39Zm32.77-44.55C128,21.64,58,.31,57.52.21a1.23,1.23,0,0,0-1.1.36L10,67.1a.76.76,0,0,0,0,.9l48.93,64.72c-.47-.62.17.66,1.25.28l77-26.66-1.56-81.88S135.45,23.91,135.08,23.79Z" class="cls-4" transform="translate(0 -0.19)"/></g><path d="M63,51.66a39,39,0,0,0,9.25,1V40.22s-.54.13-.79.22a9.23,9.23,0,0,0-3.93,2.82,22,22,0,0,0-3.75,6.3c-.29.69-.52,1.4-.78,2.1Z" class="cls-3" transform="translate(0 -0.19)"/><path d="M60,53.57l-7.73-3c-3.27,4.33-6,14.41-5.39,14.9s11.17.43,11.53,0,.61-8.1,1.59-11.89Z" class="cls-3" transform="translate(0 -0.19)"/><path d="M60.79,65.47H72.26V55.23s-9.38-.47-10-1.12-1.46,7.46-1.5,11.36Z" class="cls-3" transform="translate(0 -0.19)"/><path d="M66.29,41.11C61.49,42.44,54,47.56,54,48.57s5.13,2.31,6.75,2.57a27.5,27.5,0,0,1,5.55-10Z" class="cls-3" transform="translate(0 -0.19)"/><path d="M54,84.65c2.83,3.34,12.37,7.54,12.37,7.54S62,85.81,60.73,82.11A31.39,31.39,0,0,0,54,84.65Z" class="cls-3" transform="translate(0 -0.19)"/><path d="M88.44,67.83a94.8,94.8,0,0,1-1.59,11.89c2.59,1,7,3.6,7.7,3,.7.09,6.64-14,5.32-14.88.72-.82-7.6,0-11.43,0Z" class="cls-3" transform="translate(0 -0.19)"/><path d="M86.85,53.57a52.51,52.51,0,0,1,1.59,11.9c3.86,0,10.61-.34,11.53,0S97.86,54.9,94.58,50.56l-7.73,3Z" class="cls-3" transform="translate(0 -0.19)"/><path d="M80.6,92.18a26.21,26.21,0,0,0,12.34-7.51,32,32,0,0,0-6.78-2.56A27.45,27.45,0,0,1,80.6,92.18Z" class="cls-3" transform="translate(0 -0.19)"/><path d="M74.64,65.46H86.1a47.47,47.47,0,0,0-1.5-11.35l-10,1.12V65.46Z" class="cls-3" transform="translate(0 -0.19)"/><path d="M83.89,81.6c-2.06-.6-8.65-.91-9.27-1s0,12.44,0,12.44.44-.09.63-.15A9.1,9.1,0,0,0,79.34,90a22,22,0,0,0,3.76-6.3c.29-.7.53-1.42.79-2.14Z" class="cls-3" transform="translate(0 -0.19)"/><path d="M83.16,49.72a20.16,20.16,0,0,0-4.92-7.58,15.41,15.41,0,0,0-3.62-1.91V52.76c3.13-.07,9.29-1,9.29-1s-.49-1.36-.75-2Z" class="cls-3" transform="translate(0 -0.19)"/><path d="M86.1,67.83c0-.62-7.67,0-11.48,0,0,3.46-.63,9.57,0,10.23,1,.35,6.65.74,10,1.12a47.24,47.24,0,0,0,1.5-11.35Z" class="cls-3" transform="translate(0 -0.19)"/><path d="M100.89,110.35v-.67c1.51-12.7,4.56-25.11,6.8-37.68.88-4.89,1.86-9.75,2.8-14.63.34-1.73.38-1.82,2.14-2.06,4.55-.63,9.1-1.16,13.65-1.73,5.71-.72,11.41-1.47,17.13-2.13,7.1-.83,14.16-2.06,21.32-2.31,2-.07,2.06-.07,2.89,1.74,2.68,5.84,5.45,11.65,8.17,17.48,4.34,9.3,8.74,18.58,13.07,27.9a22.8,22.8,0,0,1,.78,2.8v.23a6.45,6.45,0,0,1-2.17,2.66c-1.43,1.16-2.7,2.5-4,3.77-3.07,2.92-6.18,5.81-9.26,8.71q-7.38,6.94-14.79,13.86c-2.74,2.55-5.41,5.19-8.24,7.66a9.47,9.47,0,0,1-1.71,1.05H149c-4-1.25-7.3-3.67-10.91-5.58-4.15-2.19-8.24-4.51-12.35-6.79-5.52-3.06-11.07-6.08-16.59-9.16-2.3-1.27-4.61-2.53-6.91-3.81A3,3,0,0,1,100.89,110.35Z" class="cls-6" transform="translate(0 -0.19)"/><path d="M147.43,77a1.74,1.74,0,0,0,.3,1.17q4,8.09,8,16.16c.26.54.44.88,1.23.74a2,2,0,0,1,2.46,1.25.3.3,0,0,1,0,.3.69.69,0,0,1-.92-.06,2,2,0,0,0-2.55-.06.86.86,0,0,1-.75.09.81.81,0,0,1-.38-.33,6.26,6.26,0,0,0-.94-2.84c-2.3-4.61-4.63-9.2-6.88-13.83a1.2,1.2,0,0,0-1.4-.8,2.05,2.05,0,0,1-2-.58c-.23-.25-.72-.33-.55-.84a.76.76,0,0,1,0-.15.33.33,0,0,1,0-.31c.37-.37.74-.23,1.11,0a1.88,1.88,0,0,0,2.29-.08c.31-.22.63-.41,1-.14A.29.29,0,0,1,147.43,77Z" class="cls-7" transform="translate(0 -0.19)"/><path d="M143.1,77.35c.22.18.56.16.69.46a5.8,5.8,0,0,1-.88,2.74c-2.3,5.16-4.57,10.33-6.86,15.5a5.42,5.42,0,0,0-.38,2.16.69.69,0,0,1-.36.37c-.14,0-.31.12-.43,0a2.66,2.66,0,0,0-3.1,0,.55.55,0,0,1-.7-.18.28.28,0,0,1,0-.31,2.31,2.31,0,0,1,2.22-1c.77.08,1-.28,1.29-.88q3.87-8.85,7.8-17.68C142.62,78.1,142.7,77.63,143.1,77.35Z" class="cls-7" transform="translate(0 -0.19)"/><path d="M135.21,98.39l.24-.26a23.64,23.64,0,0,0,4.45,0c4.18-.43,8.36-.85,12.54-1.23a3.12,3.12,0,0,0,1.89-.66.66.66,0,0,1,.74-.1l.24.26a4.42,4.42,0,0,1,0,2.76.43.43,0,0,1-.48.17c-.32-1.36-1.18-1.33-2.38-1.2-5,.57-10,1.09-15.05,1.4-1.46.1-1.25,1.18-1.79,1.83a.4.4,0,0,1-.47-.18A5.1,5.1,0,0,1,135.21,98.39Z" class="cls-7" transform="translate(0 -0.19)"/><path d="M147.43,77l-.06-.34c-.41-.23-.33-.6-.35-1a1.78,1.78,0,0,0-1.76-1.93,1.87,1.87,0,0,0-1.82,2c0,.4.12.84-.29,1.14l-.06.33a2.66,2.66,0,0,1,.2-3.76,2.77,2.77,0,0,1,3.85-.07A2.59,2.59,0,0,1,147.43,77Z" class="cls-7" transform="translate(0 -0.19)"/><path d="M135.41,101l.24.28a2.73,2.73,0,0,1-4.07.79,2.68,2.68,0,0,1-.45-4l.05.34c.33.23.29.57.3.92.05,2,1.26,2.7,3,1.82C134.77,101,135.05,100.86,135.41,101Z" class="cls-7" transform="translate(0 -0.19)"/><path d="M154.87,99.28l.25-.28c.4-.21.7,0,1,.22,1.5.77,2.76.07,2.85-1.59,0-.38-.07-.76.34-1l.06-.34c1,1,.7,2.36-.14,3.46a2.71,2.71,0,0,1-3.39.53A2,2,0,0,1,154.87,99.28Z" class="cls-7" transform="translate(0 -0.19)"/><path d="M155.07,96.09c-.42,1-1.29,1.21-2.3,1.3-5.4.49-10.78,1-16.17,1.58-.78.08-.73-.62-1.15-.84a1.22,1.22,0,0,1-.26-1.57c2.68-6,5.3-11.94,7.95-17.92.14-.31.17-.77.65-.83a2.3,2.3,0,0,0,2.33.32c.52-.2.78-.13,1,.4q4,8.2,8.1,16.39A.94.94,0,0,1,155.07,96.09Z" class="cls-7" transform="translate(0 -0.19)"/><path d="M143.15,76.87c-.53-1.55-.23-2.73.9-3.4a2.11,2.11,0,0,1,2.62.15,2,2,0,0,1,.78,2.47,3.31,3.31,0,0,0-.08.55C145.94,78.17,145.28,78.2,143.15,76.87Z" class="cls-7" transform="translate(0 -0.19)"/><path d="M159.34,96.64a2.65,2.65,0,0,1-.35,2.72c-1.06,1.21-2.48,1.07-3.87-.36a2.86,2.86,0,0,1,.19-2.65C156.92,95.06,157.92,95.13,159.34,96.64Z" class="cls-7" transform="translate(0 -0.19)"/><path d="M135.41,101c-1.54,1.58-2.94,1.6-4.14,0-.63-.83-.32-1.73-.09-2.61,2-1.28,2.51-1.28,4-.06A2.84,2.84,0,0,1,135.41,101Z" class="cls-7" transform="translate(0 -0.19)"/><path d="M6.07,151.09a3,3,0,0,0-.6,2v3.51H9.28a1,1,0,0,1,.67.27,1,1,0,0,1,0,1.36,1,1,0,0,1-.67.27H5.47v14.11a1,1,0,0,1-.29.73,1,1,0,0,1-.73.29,1,1,0,0,1-.73-.29,1,1,0,0,1-.29-.73V158.47H1a.91.91,0,0,1-.68-.29.93.93,0,0,1-.27-.66.91.91,0,0,1,.27-.7,1,1,0,0,1,.68-.25H3.43v-3.51a4.37,4.37,0,0,1,1.24-3.31A4.66,4.66,0,0,1,8,148.58a5.14,5.14,0,0,1,1.77.29q.81.28.81.93a.93.93,0,0,1-.27.68.84.84,0,0,1-.61.27,2.06,2.06,0,0,1-.75-.17,5,5,0,0,0-1.19-.2A2.08,2.08,0,0,0,6.07,151.09Z" class="cls-8" transform="translate(0 -0.19)"/><path d="M28.08,164.61a1,1,0,0,1-.71.29H14.52a7.79,7.79,0,0,0,.83,3.65,6.29,6.29,0,0,0,2.38,2.55,7,7,0,0,0,3.66.94,6.22,6.22,0,0,0,2.92-.68,6.13,6.13,0,0,0,2.07-1.74,1.17,1.17,0,0,1,.72-.3.85.85,0,0,1,.61.27.84.84,0,0,1,.27.61,1,1,0,0,1-.34.71,8.55,8.55,0,0,1-2.73,2.18,7.5,7.5,0,0,1-3.49.85,9.24,9.24,0,0,1-4.62-1.12,8,8,0,0,1-3.13-3.15A9.44,9.44,0,0,1,12.55,165a10.24,10.24,0,0,1,1.1-4.88,8.08,8.08,0,0,1,2.94-3.2,7.54,7.54,0,0,1,3.91-1.1,8.08,8.08,0,0,1,3.83,1,7.39,7.39,0,0,1,2.9,2.79,8.34,8.34,0,0,1,1.16,4.35A.93.93,0,0,1,28.08,164.61Zm-11.23-5.46a6.24,6.24,0,0,0-2.16,3.91H26.28v-.27a5.31,5.31,0,0,0-1-2.67,5.4,5.4,0,0,0-2.12-1.73,6.13,6.13,0,0,0-2.64-.6A5.67,5.67,0,0,0,16.85,159.15Z" class="cls-8" transform="translate(0 -0.19)"/><path d="M34.56,173.31a1,1,0,0,1-1.75-.73V149.46a1,1,0,1,1,2,0v23.12A1,1,0,0,1,34.56,173.31Z" class="cls-8" transform="translate(0 -0.19)"/><path d="M40.32,153.32a1.18,1.18,0,0,1-.37-.94V152a1.14,1.14,0,0,1,.39-.93,1.61,1.61,0,0,1,1.07-.32c.91,0,1.36.42,1.36,1.25v.34a1.21,1.21,0,0,1-.36.94,1.49,1.49,0,0,1-1,.32A1.6,1.6,0,0,1,40.32,153.32Zm1.79,20a1,1,0,0,1-.73.29,1,1,0,0,1-.73-.29,1,1,0,0,1-.29-.73V156.94a1,1,0,0,1,.29-.73,1,1,0,0,1,.73-.29,1,1,0,0,1,1,1v15.64A1,1,0,0,1,42.11,173.31Z" class="cls-8" transform="translate(0 -0.19)"/><path d="M60.32,172.68a1,1,0,0,1-.31.73.94.94,0,0,1-.72.33,1.05,1.05,0,0,1-.84-.48l-5.21-6.73L48,173.29a.94.94,0,0,1-.81.41,1.07,1.07,0,0,1-.69-.25.83.83,0,0,1-.3-.67.94.94,0,0,1,.24-.64L52.05,165l-5.67-7.31a1,1,0,0,1,.11-1.33,1.06,1.06,0,0,1,.74-.3.92.92,0,0,1,.81.44l5.31,6.83,5.1-6.83a1,1,0,0,1,.84-.44.94.94,0,0,1,.7.25.86.86,0,0,1,.26.63,1,1,0,0,1-.24.65l-5.51,7.24,5.58,7.24A.91.91,0,0,1,60.32,172.68Z" class="cls-8" transform="translate(0 -0.19)"/><path d="M88.38,158a8,8,0,0,1,1.45,5v9.62a1,1,0,0,1-.29.73,1,1,0,0,1-.73.29,1,1,0,0,1-.73-.29,1,1,0,0,1-.29-.73v-9.52a5.88,5.88,0,0,0-1.07-3.65A3.89,3.89,0,0,0,83.4,158a5.76,5.76,0,0,0-4.76,2.54,4.47,4.47,0,0,0-.78,2.53v9.52a1,1,0,0,1-1,1,1,1,0,0,1-.73-.29,1,1,0,0,1-.29-.73V163a5.88,5.88,0,0,0-1-3.59A3.72,3.72,0,0,0,71.6,158a5.4,5.4,0,0,0-2.63.68,5.69,5.69,0,0,0-2,1.82A4.33,4.33,0,0,0,66.2,163v9.62a1,1,0,0,1-.29.73,1,1,0,0,1-.73.29,1,1,0,0,1-.73-.29,1,1,0,0,1-.29-.73V157.35a1,1,0,0,1,1-1,1,1,0,0,1,1,1v2A7.36,7.36,0,0,1,68.68,157a6.43,6.43,0,0,1,3.3-.92,6.05,6.05,0,0,1,3.4.95,5.26,5.26,0,0,1,2,2.79A6.27,6.27,0,0,1,80,157.21a7.42,7.42,0,0,1,3.84-1.12A5.3,5.3,0,0,1,88.38,158Z" class="cls-9" transform="translate(0 -0.19)"/><path d="M110,156.53a1,1,0,0,1,.29.75v15.3a1,1,0,0,1-.29.73,1,1,0,0,1-.73.29,1,1,0,0,1-.73-.29,1,1,0,0,1-.29-.73V170.3a7.09,7.09,0,0,1-2.55,2.59,6.91,6.91,0,0,1-3.7,1.05,7.35,7.35,0,0,1-4.1-1.19A8.26,8.26,0,0,1,95,169.49a10.32,10.32,0,0,1-1-4.66,10.06,10.06,0,0,1,1-4.64A8.11,8.11,0,0,1,97.94,157a7.61,7.61,0,0,1,7.76-.17,6.41,6.41,0,0,1,2.55,2.59v-2.11a1.08,1.08,0,0,1,.29-.75,1,1,0,0,1,.73-.3A1,1,0,0,1,110,156.53Zm-4.62,14.57a6.28,6.28,0,0,0,2.21-2.58,8.39,8.39,0,0,0,.8-3.69,8.14,8.14,0,0,0-.8-3.61,6.35,6.35,0,0,0-2.21-2.56,5.58,5.58,0,0,0-3.18-.94,5.72,5.72,0,0,0-3.18.92,6.34,6.34,0,0,0-2.21,2.53,8.2,8.2,0,0,0-.8,3.66,8.39,8.39,0,0,0,.79,3.69A6.17,6.17,0,0,0,99,171.1a5.9,5.9,0,0,0,6.39,0Z" class="cls-9" transform="translate(0 -0.19)"/><path d="M130.47,148.73a1,1,0,0,1,.29.73v23.12a1,1,0,0,1-.29.73,1,1,0,0,1-.73.29,1,1,0,0,1-1-1V170.2a7.26,7.26,0,0,1-2.53,2.65,6.67,6.67,0,0,1-3.72,1.09,7.38,7.38,0,0,1-4.07-1.17,8.25,8.25,0,0,1-2.87-3.25,10.17,10.17,0,0,1-1-4.66,10.07,10.07,0,0,1,1-4.62A8.18,8.18,0,0,1,118.4,157a7.32,7.32,0,0,1,4-1.17,7.17,7.17,0,0,1,3.71,1,6.92,6.92,0,0,1,2.58,2.6v-10a1,1,0,0,1,1-1A1,1,0,0,1,130.47,148.73Zm-4.62,22.39a6.19,6.19,0,0,0,2.21-2.57,8.39,8.39,0,0,0,.8-3.69,8.21,8.21,0,0,0-.8-3.64,6.35,6.35,0,0,0-2.21-2.56,5.85,5.85,0,0,0-6.36,0,6.35,6.35,0,0,0-2.21,2.56,8.75,8.75,0,0,0,0,7.31,6.32,6.32,0,0,0,2.21,2.57,5.66,5.66,0,0,0,3.18.94A5.72,5.72,0,0,0,125.85,171.12Z" class="cls-9" transform="translate(0 -0.19)"/><path d="M150.48,164.61a1,1,0,0,1-.71.29H136.92a7.79,7.79,0,0,0,.83,3.65,6.23,6.23,0,0,0,2.38,2.55,7,7,0,0,0,3.65.94,6.24,6.24,0,0,0,2.93-.68,6.13,6.13,0,0,0,2.07-1.74,1.17,1.17,0,0,1,.72-.3.85.85,0,0,1,.61.27.84.84,0,0,1,.27.61,1,1,0,0,1-.34.71,8.59,8.59,0,0,1-2.74,2.18,7.46,7.46,0,0,1-3.48.85,9.31,9.31,0,0,1-4.63-1.12,7.94,7.94,0,0,1-3.12-3.15,9.44,9.44,0,0,1-1.13-4.67,10.25,10.25,0,0,1,1.11-4.88,8.08,8.08,0,0,1,2.94-3.2,7.51,7.51,0,0,1,3.91-1.1,8,8,0,0,1,3.82,1,7.41,7.41,0,0,1,2.91,2.79,8.44,8.44,0,0,1,1.16,4.35A.93.93,0,0,1,150.48,164.61Zm-11.23-5.46a6.24,6.24,0,0,0-2.16,3.91h11.59v-.27a5.31,5.31,0,0,0-1-2.67,5.54,5.54,0,0,0-2.12-1.73,6.17,6.17,0,0,0-2.64-.6A5.65,5.65,0,0,0,139.25,159.15Z" class="cls-9" transform="translate(0 -0.19)"/><path d="M179.23,158a8,8,0,0,1,1.44,5v9.62a1,1,0,0,1-.29.73,1,1,0,0,1-.73.29,1,1,0,0,1-.73-.29,1,1,0,0,1-.29-.73v-9.52a5.82,5.82,0,0,0-1.07-3.65,3.87,3.87,0,0,0-3.31-1.42,5.73,5.73,0,0,0-2.71.68,5.65,5.65,0,0,0-2,1.86,4.47,4.47,0,0,0-.78,2.53v9.52a1,1,0,0,1-.29.73,1,1,0,0,1-.73.29,1,1,0,0,1-.73-.29,1,1,0,0,1-.29-.73V163a5.88,5.88,0,0,0-1-3.59,3.72,3.72,0,0,0-3.2-1.38,5.46,5.46,0,0,0-2.64.68,5.74,5.74,0,0,0-2,1.82A4.34,4.34,0,0,0,157,163v9.62a1,1,0,0,1-.29.73,1,1,0,0,1-.73.29,1,1,0,0,1-.73-.29,1,1,0,0,1-.29-.73V157.35a1,1,0,0,1,1-1,1,1,0,0,1,1,1v2a7.39,7.39,0,0,1,2.49-2.31,6.42,6.42,0,0,1,3.29-.92,6,6,0,0,1,3.4.95,5.16,5.16,0,0,1,2,2.79,6.33,6.33,0,0,1,2.62-2.62,7.48,7.48,0,0,1,3.84-1.12A5.33,5.33,0,0,1,179.23,158Z" class="cls-8" transform="translate(0 -0.19)"/><path d="M200.39,164.61a1,1,0,0,1-.71.29H186.83a7.79,7.79,0,0,0,.83,3.65A6.23,6.23,0,0,0,190,171.1a7,7,0,0,0,3.66.94,6.22,6.22,0,0,0,2.92-.68,6.13,6.13,0,0,0,2.07-1.74,1.17,1.17,0,0,1,.72-.3.85.85,0,0,1,.61.27.84.84,0,0,1,.27.61,1,1,0,0,1-.34.71,8.48,8.48,0,0,1-2.74,2.18,7.46,7.46,0,0,1-3.48.85,9.31,9.31,0,0,1-4.63-1.12,7.94,7.94,0,0,1-3.12-3.15,9.44,9.44,0,0,1-1.13-4.67,10.25,10.25,0,0,1,1.11-4.88,8.08,8.08,0,0,1,2.94-3.2,7.51,7.51,0,0,1,3.91-1.1,8.08,8.08,0,0,1,3.83,1,7.46,7.46,0,0,1,2.9,2.79,8.34,8.34,0,0,1,1.16,4.35A.93.93,0,0,1,200.39,164.61Zm-11.23-5.46a6.24,6.24,0,0,0-2.16,3.91h11.59v-.27a5.31,5.31,0,0,0-1-2.67,5.47,5.47,0,0,0-2.12-1.73,6.13,6.13,0,0,0-2.64-.6A5.67,5.67,0,0,0,189.16,159.15Z" class="cls-8" transform="translate(0 -0.19)"/><path d="M9.15,193.76a3.64,3.64,0,0,1-2.88-1.15,4.7,4.7,0,0,1-1-3.24,4.86,4.86,0,0,1,1-3.32,3.73,3.73,0,0,1,3-1.17,6.42,6.42,0,0,1,1.23.13,4.06,4.06,0,0,1,1,.32l-.4,1.1a6,6,0,0,0-.93-.29,4.57,4.57,0,0,0-.9-.11q-2.61,0-2.61,3.33a4,4,0,0,0,.63,2.42,2.24,2.24,0,0,0,1.89.84,5.75,5.75,0,0,0,2.2-.46v1.15A4.68,4.68,0,0,1,9.15,193.76Z" class="cls-8" transform="translate(0 -0.19)"/><path d="M17.25,184.88a4.61,4.61,0,0,1,1,.1l-.18,1.2a4.39,4.39,0,0,0-.94-.12,2.29,2.29,0,0,0-1.78.85,3.08,3.08,0,0,0-.74,2.1v4.59H13.35V185h1.07l.15,1.58h.06a3.92,3.92,0,0,1,1.15-1.29A2.6,2.6,0,0,1,17.25,184.88Z" class="cls-8" transform="translate(0 -0.19)"/><path d="M23.5,193.76a3.94,3.94,0,0,1-3-1.16,4.48,4.48,0,0,1-1.1-3.21,5,5,0,0,1,1-3.29,3.39,3.39,0,0,1,2.74-1.22,3.23,3.23,0,0,1,2.55,1.06,4.09,4.09,0,0,1,.93,2.79v.82H20.75a3.36,3.36,0,0,0,.76,2.29,2.63,2.63,0,0,0,2,.78,7,7,0,0,0,2.74-.57v1.15a7,7,0,0,1-1.3.43A7.82,7.82,0,0,1,23.5,193.76ZM23.14,186a2.11,2.11,0,0,0-1.64.67,3.08,3.08,0,0,0-.72,1.86h4.47a2.89,2.89,0,0,0-.54-1.88A2,2,0,0,0,23.14,186Z" class="cls-8" transform="translate(0 -0.19)"/><path d="M34.12,193.6l-.26-1.22H33.8a3.55,3.55,0,0,1-1.28,1.09,3.86,3.86,0,0,1-1.59.29,2.83,2.83,0,0,1-2-.66,2.41,2.41,0,0,1-.73-1.87c0-1.73,1.39-2.63,4.15-2.72l1.46,0v-.53a2.16,2.16,0,0,0-.44-1.49A1.78,1.78,0,0,0,32,186a5.78,5.78,0,0,0-2.43.65l-.39-1a6.08,6.08,0,0,1,2.89-.73,3.23,3.23,0,0,1,2.27.68,2.8,2.8,0,0,1,.74,2.18v5.84Zm-2.93-.91a2.59,2.59,0,0,0,1.9-.67,2.46,2.46,0,0,0,.7-1.86v-.77l-1.3.05a4.79,4.79,0,0,0-2.23.48,1.46,1.46,0,0,0-.69,1.33,1.36,1.36,0,0,0,.43,1.07A1.78,1.78,0,0,0,31.19,192.69Z" class="cls-8" transform="translate(0 -0.19)"/><path d="M40.52,192.69a4.65,4.65,0,0,0,.66-.05,4.22,4.22,0,0,0,.51-.11v1a2.15,2.15,0,0,1-.62.17,5.24,5.24,0,0,1-.74.07c-1.65,0-2.48-.88-2.48-2.62v-5.09H36.62v-.63l1.23-.54.54-1.83h.75v2h2.49v1H39.14v5a1.75,1.75,0,0,0,.37,1.19A1.28,1.28,0,0,0,40.52,192.69Z" class="cls-8" transform="translate(0 -0.19)"/><path d="M43.29,182.72a.86.86,0,0,1,.22-.65.81.81,0,0,1,1.09,0,1.07,1.07,0,0,1,0,1.3.81.81,0,0,1-1.09,0A.89.89,0,0,1,43.29,182.72ZM44.7,193.6H43.4V185h1.3Z" class="cls-8" transform="translate(0 -0.19)"/><path d="M49.32,193.6,46.07,185h1.39l1.85,5.08a20.89,20.89,0,0,1,.73,2.31h.07a14.12,14.12,0,0,1,.54-1.72c.3-.86,1-2.75,2.05-5.67h1.39l-3.25,8.56Z" class="cls-8" transform="translate(0 -0.19)"/><path d="M59.08,193.76a3.93,3.93,0,0,1-3-1.16,4.44,4.44,0,0,1-1.1-3.21,5,5,0,0,1,1-3.29,3.39,3.39,0,0,1,2.74-1.22,3.2,3.2,0,0,1,2.54,1.06,4,4,0,0,1,.94,2.79v.82h-5.9a3.42,3.42,0,0,0,.76,2.29,2.65,2.65,0,0,0,2,.78,7,7,0,0,0,2.73-.57v1.15a6.81,6.81,0,0,1-1.3.43A7.75,7.75,0,0,1,59.08,193.76ZM58.73,186a2.1,2.1,0,0,0-1.64.67,3.15,3.15,0,0,0-.73,1.86h4.48a2.83,2.83,0,0,0-.55-1.88A1.92,1.92,0,0,0,58.73,186Z" class="cls-8" transform="translate(0 -0.19)"/><path d="M75.59,193.6l-1.57-5c-.1-.31-.28-1-.56-2.1H73.4c-.21.91-.39,1.62-.54,2.11l-1.62,5h-1.5L67.4,185h1.36q.83,3.22,1.26,4.91a19.44,19.44,0,0,1,.5,2.28h.06c.06-.3.15-.69.28-1.16s.24-.84.33-1.12L72.76,185h1.41L75.7,190a16.28,16.28,0,0,1,.59,2.26h.07a7.74,7.74,0,0,1,.16-.87c.09-.39.64-2.49,1.63-6.3H79.5l-2.37,8.56Z" class="cls-8" transform="translate(0 -0.19)"/><path d="M84.66,193.76a4,4,0,0,1-3-1.16,4.48,4.48,0,0,1-1.09-3.21,5,5,0,0,1,1-3.29,3.39,3.39,0,0,1,2.73-1.22,3.21,3.21,0,0,1,2.55,1.06,4,4,0,0,1,.94,2.79v.82h-5.9a3.42,3.42,0,0,0,.76,2.29,2.64,2.64,0,0,0,2,.78,7,7,0,0,0,2.73-.57v1.15a7,7,0,0,1-1.3.43A7.75,7.75,0,0,1,84.66,193.76ZM84.31,186a2.12,2.12,0,0,0-1.65.67,3.08,3.08,0,0,0-.72,1.86h4.48a2.83,2.83,0,0,0-.55-1.88A1.92,1.92,0,0,0,84.31,186Z" class="cls-8" transform="translate(0 -0.19)"/><path d="M94,184.9a3.16,3.16,0,0,1,2.62,1.15,5,5,0,0,1,.94,3.26,5.08,5.08,0,0,1-.94,3.28A3.18,3.18,0,0,1,94,193.76a3.79,3.79,0,0,1-1.52-.31,2.87,2.87,0,0,1-1.16-.95h-.1L91,193.6H90V181.44h1.3v3c0,.66,0,1.25-.07,1.78h.07A3.05,3.05,0,0,1,94,184.9ZM93.82,186a2.27,2.27,0,0,0-1.92.77,5.89,5.89,0,0,0,0,5.14,2.28,2.28,0,0,0,1.93.78,2,2,0,0,0,1.78-.87,4.49,4.49,0,0,0,.58-2.5,4.33,4.33,0,0,0-.58-2.5A2.1,2.1,0,0,0,93.82,186Z" class="cls-8" transform="translate(0 -0.19)"/><path d="M105.35,191.26a2.16,2.16,0,0,1-.89,1.85,4.22,4.22,0,0,1-2.5.65,5.44,5.44,0,0,1-2.66-.54V192a6.32,6.32,0,0,0,1.32.5,5.61,5.61,0,0,0,1.37.18,3,3,0,0,0,1.56-.33,1.05,1.05,0,0,0,.55-1,1.08,1.08,0,0,0-.44-.85,6.42,6.42,0,0,0-1.69-.84,9.85,9.85,0,0,1-1.7-.78,2.43,2.43,0,0,1-.75-.75,2,2,0,0,1-.24-1,1.9,1.9,0,0,1,.85-1.65,3.93,3.93,0,0,1,2.33-.61,6.92,6.92,0,0,1,2.71.56l-.46,1.06a6.1,6.1,0,0,0-2.34-.53,2.62,2.62,0,0,0-1.39.29.9.9,0,0,0-.47.79,1,1,0,0,0,.18.59,1.59,1.59,0,0,0,.56.46,11.15,11.15,0,0,0,1.5.63,5.59,5.59,0,0,1,2.06,1.12A2,2,0,0,1,105.35,191.26Z" class="cls-8" transform="translate(0 -0.19)"/><path d="M107.35,182.72a.82.82,0,0,1,.22-.65.73.73,0,0,1,.54-.21.76.76,0,0,1,.54.21,1,1,0,0,1,0,1.3.76.76,0,0,1-.54.21.73.73,0,0,1-.54-.21A.85.85,0,0,1,107.35,182.72Zm1.4,10.88h-1.29V185h1.29Z" class="cls-8" transform="translate(0 -0.19)"/><path d="M114.27,192.69a4.65,4.65,0,0,0,.66-.05,4.22,4.22,0,0,0,.51-.11v1a2.15,2.15,0,0,1-.62.17,5.24,5.24,0,0,1-.74.07c-1.65,0-2.48-.88-2.48-2.62v-5.09h-1.23v-.63l1.23-.54.54-1.83h.75v2h2.49v1h-2.49v5a1.75,1.75,0,0,0,.37,1.19A1.28,1.28,0,0,0,114.27,192.69Z" class="cls-8" transform="translate(0 -0.19)"/><path d="M120.77,193.76a3.94,3.94,0,0,1-3-1.16,4.48,4.48,0,0,1-1.09-3.21,5,5,0,0,1,1-3.29,3.39,3.39,0,0,1,2.73-1.22,3.21,3.21,0,0,1,2.55,1.06,4,4,0,0,1,.94,2.79v.82H118a3.42,3.42,0,0,0,.76,2.29,2.64,2.64,0,0,0,2,.78,7,7,0,0,0,2.73-.57v1.15a7,7,0,0,1-1.3.43A7.75,7.75,0,0,1,120.77,193.76Zm-.35-7.79a2.12,2.12,0,0,0-1.65.67,3.08,3.08,0,0,0-.72,1.86h4.48a2.89,2.89,0,0,0-.55-1.88A1.94,1.94,0,0,0,120.42,186Z" class="cls-8" transform="translate(0 -0.19)"/><path d="M135.81,191.26a2.16,2.16,0,0,1-.89,1.85,4.22,4.22,0,0,1-2.5.65,5.44,5.44,0,0,1-2.66-.54V192a6.2,6.2,0,0,0,1.33.5,5.47,5.47,0,0,0,1.36.18,3,3,0,0,0,1.56-.33,1.05,1.05,0,0,0,.55-1,1.08,1.08,0,0,0-.44-.85,6.42,6.42,0,0,0-1.69-.84,9.85,9.85,0,0,1-1.7-.78,2.43,2.43,0,0,1-.75-.75,2,2,0,0,1-.24-1,1.9,1.9,0,0,1,.85-1.65,3.94,3.94,0,0,1,2.34-.61,6.91,6.91,0,0,1,2.7.56l-.46,1.06a6.1,6.1,0,0,0-2.34-.53,2.62,2.62,0,0,0-1.39.29.9.9,0,0,0-.47.79,1,1,0,0,0,.18.59,1.68,1.68,0,0,0,.56.46,12.47,12.47,0,0,0,1.5.63,5.59,5.59,0,0,1,2.06,1.12A2,2,0,0,1,135.81,191.26Z" class="cls-8" transform="translate(0 -0.19)"/><path d="M145.31,189.31a4.68,4.68,0,0,1-1.06,3.27,3.68,3.68,0,0,1-2.91,1.18,3.84,3.84,0,0,1-2-.54,3.57,3.57,0,0,1-1.37-1.55,5.29,5.29,0,0,1-.49-2.36,4.71,4.71,0,0,1,1.05-3.26,3.7,3.7,0,0,1,2.9-1.17,3.63,3.63,0,0,1,2.86,1.2A4.66,4.66,0,0,1,145.31,189.31Zm-6.52,0a4,4,0,0,0,.65,2.5,2.61,2.61,0,0,0,3.86,0,4,4,0,0,0,.66-2.51,3.92,3.92,0,0,0-.66-2.48,2.33,2.33,0,0,0-1.94-.85,2.3,2.3,0,0,0-1.93.84A4,4,0,0,0,138.79,189.31Z" class="cls-8" transform="translate(0 -0.19)"/><path d="M148.88,193.6h-1.3V181.44h1.3Z" class="cls-8" transform="translate(0 -0.19)"/><path d="M152.85,185v5.55a2.3,2.3,0,0,0,.47,1.57,2,2,0,0,0,1.5.51,2.42,2.42,0,0,0,2-.73,3.67,3.67,0,0,0,.62-2.4V185h1.3v8.56h-1.07l-.19-1.15h-.07a2.54,2.54,0,0,1-1.1,1,3.81,3.81,0,0,1-1.62.34,3.26,3.26,0,0,1-2.34-.75,3.13,3.13,0,0,1-.77-2.37V185Z" class="cls-8" transform="translate(0 -0.19)"/><path d="M164.21,192.69a4.8,4.8,0,0,0,.67-.05c.21,0,.38-.07.51-.11v1a2.15,2.15,0,0,1-.62.17,5.37,5.37,0,0,1-.74.07c-1.66,0-2.49-.88-2.49-2.62v-5.09h-1.22v-.63l1.22-.54.55-1.83h.75v2h2.48v1h-2.48v5a1.7,1.7,0,0,0,.37,1.19A1.26,1.26,0,0,0,164.21,192.69Z" class="cls-8" transform="translate(0 -0.19)"/><path d="M167,182.72a.82.82,0,0,1,.22-.65.75.75,0,0,1,.54-.21.76.76,0,0,1,.54.21,1,1,0,0,1,0,1.3.76.76,0,0,1-.54.21.75.75,0,0,1-.54-.21A.85.85,0,0,1,167,182.72Zm1.4,10.88H167.1V185h1.29Z" class="cls-8" transform="translate(0 -0.19)"/><path d="M178.54,189.31a4.73,4.73,0,0,1-1.06,3.27,3.68,3.68,0,0,1-2.91,1.18,3.84,3.84,0,0,1-2-.54,3.6,3.6,0,0,1-1.38-1.55,5.43,5.43,0,0,1-.48-2.36,4.76,4.76,0,0,1,1-3.26,3.71,3.71,0,0,1,2.91-1.17,3.63,3.63,0,0,1,2.86,1.2A4.71,4.71,0,0,1,178.54,189.31Zm-6.53,0a4,4,0,0,0,.66,2.5,2.61,2.61,0,0,0,3.86,0,4.06,4.06,0,0,0,.66-2.51,4,4,0,0,0-.66-2.48,2.34,2.34,0,0,0-1.95-.85,2.27,2.27,0,0,0-1.92.84A4,4,0,0,0,172,189.31Z" class="cls-8" transform="translate(0 -0.19)"/><path d="M186.67,193.6v-5.54a2.21,2.21,0,0,0-.48-1.56,2,2,0,0,0-1.49-.52,2.48,2.48,0,0,0-2,.73,3.64,3.64,0,0,0-.62,2.4v4.49h-1.3V185h1.05l.21,1.17h.07a2.59,2.59,0,0,1,1.11-1,3.69,3.69,0,0,1,1.61-.35,3.22,3.22,0,0,1,2.32.75A3.17,3.17,0,0,1,188,188v5.59Z" class="cls-8" transform="translate(0 -0.19)"/><path d="M196.15,191.26a2.13,2.13,0,0,1-.89,1.85,4.2,4.2,0,0,1-2.5.65,5.4,5.4,0,0,1-2.65-.54V192a6.32,6.32,0,0,0,1.32.5,5.53,5.53,0,0,0,1.36.18,3.08,3.08,0,0,0,1.57-.33,1.12,1.12,0,0,0,.11-1.84,6.59,6.59,0,0,0-1.69-.84,9.16,9.16,0,0,1-1.7-.78,2.23,2.23,0,0,1-.75-.75,2.07,2.07,0,0,1,.6-2.66,3.94,3.94,0,0,1,2.34-.61,6.91,6.91,0,0,1,2.7.56l-.46,1.06a6.1,6.1,0,0,0-2.33-.53,2.59,2.59,0,0,0-1.39.29.88.88,0,0,0-.47.79,1,1,0,0,0,.17.59,1.73,1.73,0,0,0,.57.46,11.15,11.15,0,0,0,1.5.63,5.77,5.77,0,0,1,2.06,1.12A2,2,0,0,1,196.15,191.26Z" class="cls-8" transform="translate(0 -0.19)"/></g></g></svg>