<svg xmlns="http://www.w3.org/2000/svg" xmlns:xlink="http://www.w3.org/1999/xlink" viewBox="0 0 392.79 137.31"><defs><style>.cls-1{fill:none;}.cls-2{fill:#ef3e59;}.cls-3,.cls-4,.cls-6,.cls-7{fill:#1e272e;}.cls-3{stroke:#1e272e;}.cls-3,.cls-6,.cls-7{stroke-miterlimit:10;}.cls-5{clip-path:url(#clip-path);}.cls-6{stroke:#fff;}.cls-7{stroke:#3ab76a;}.cls-8{fill:#495460;}.cls-9{fill:#3ab76a;}</style><clipPath id="clip-path" transform="translate(-0.18 -0.19)"><rect class="cls-1" width="127.55" height="133.29"/></clipPath></defs><title>Asset 57</title><g id="Layer_2" data-name="Layer 2"><g id="Layer_1-2" data-name="Layer 1"><circle class="cls-2" cx="63.59" cy="66.46" r="32.72"/><path class="cls-3" d="M83.27,48.62a26.16,26.16,0,0,0-12.34-7.5C73.6,44,76.49,51.18,76.49,51.18a57.84,57.84,0,0,0,6.78-2.56Z" transform="translate(-0.18 -0.19)"/><path class="cls-3" d="M53.4,81.8A26,26,0,0,0,57,88.92a11.15,11.15,0,0,0,3.69,3.41c.6.32,1.94.81,1.94.81s-.34-12.06,0-12.62-6.19.39-9.22,1a1.85,1.85,0,0,0,0,.24Z" transform="translate(-0.18 -0.19)"/><path class="cls-4" d="M52.65,79.28c.72.25,3.33-.56,5-.74s4.25,0,5-.37,0-9.79,0-10.34-11.2-.51-11.49,0,.56,7.72,1.54,11.45Z" transform="translate(-0.18 -0.19)"/><g class="cls-5"><path class="cls-3" d="M48.77,67.82H37.25c.29,5.61,5.2,15.52,5.39,14.91s5.11-2,7.73-3a53.24,53.24,0,0,1-1.6-11.9Z" transform="translate(-0.18 -0.19)"/><path class="cls-4" d="M92.64,68.34c0,.4-.09.81-.14,1.21A28.94,28.94,0,0,1,64.65,95.49,27.18,27.18,0,0,1,49,91.42C40.28,86,35.55,78.12,35,67.86A27.19,27.19,0,0,1,39,51.79,28.39,28.39,0,0,1,58.8,38.23c1.08-.2,2.19-.3,3.28-.45h3.39c.16,0,.32.08.49.1a27.46,27.46,0,0,1,12.69,4A28.44,28.44,0,0,1,92.19,61.68c.2,1.08.3,2.18.45,3.27v3.39Zm32.77-44.55C118.33,21.64,48.3.31,47.85.21a1.23,1.23,0,0,0-1.1.36L.32,67.1a.78.78,0,0,0,0,.9l48.93,64.72c-.47-.62.17.66,1.25.28l77-26.66L126,24.46S125.78,23.91,125.41,23.79Z" transform="translate(-0.18 -0.19)"/></g><path class="cls-3" d="M53.34,51.66a39,39,0,0,0,9.25,1V40.22s-.55.13-.79.22a9.17,9.17,0,0,0-3.93,2.82,22.27,22.27,0,0,0-3.76,6.3c-.28.69-.52,1.4-.77,2.1Z" transform="translate(-0.18 -0.19)"/><path class="cls-3" d="M50.37,53.57l-7.73-3c-3.28,4.33-6,14.41-5.39,14.9s11.16.43,11.53,0,.61-8.1,1.59-11.89Z" transform="translate(-0.18 -0.19)"/><path class="cls-3" d="M51.12,65.47H62.59V55.23s-9.38-.47-10-1.12-1.46,7.46-1.5,11.36Z" transform="translate(-0.18 -0.19)"/><path class="cls-3" d="M56.62,41.11c-4.8,1.33-12.31,6.45-12.3,7.46s5.13,2.31,6.75,2.57a27.35,27.35,0,0,1,5.55-10Z" transform="translate(-0.18 -0.19)"/><path class="cls-3" d="M44.33,84.65C47.16,88,56.7,92.19,56.7,92.19s-4.38-6.38-5.64-10.08a31.19,31.19,0,0,0-6.73,2.54Z" transform="translate(-0.18 -0.19)"/><path class="cls-3" d="M78.77,67.83a94.8,94.8,0,0,1-1.59,11.89c2.59,1,7,3.6,7.7,3,.7.09,6.63-14,5.32-14.88.72-.82-7.6,0-11.43,0Z" transform="translate(-0.18 -0.19)"/><path class="cls-3" d="M77.18,53.57a53.08,53.08,0,0,1,1.59,11.9c3.85,0,10.61-.34,11.53,0S88.19,54.9,84.91,50.56l-7.73,3Z" transform="translate(-0.18 -0.19)"/><path class="cls-3" d="M70.93,92.18a26.21,26.21,0,0,0,12.34-7.51,32,32,0,0,0-6.78-2.56,27.59,27.59,0,0,1-5.56,10.07Z" transform="translate(-0.18 -0.19)"/><path class="cls-3" d="M65,65.46H76.43a47.47,47.47,0,0,0-1.5-11.35L65,55.23V65.46Z" transform="translate(-0.18 -0.19)"/><path class="cls-3" d="M74.22,81.6c-2.06-.6-8.66-.91-9.27-1s0,12.44,0,12.44.43-.09.63-.15A9.1,9.1,0,0,0,69.67,90a22.27,22.27,0,0,0,3.76-6.3c.29-.7.53-1.42.79-2.14Z" transform="translate(-0.18 -0.19)"/><path class="cls-3" d="M73.49,49.72a20.28,20.28,0,0,0-4.92-7.58A15.41,15.41,0,0,0,65,40.23V52.76c3.13-.07,9.29-1,9.29-1s-.49-1.36-.75-2Z" transform="translate(-0.18 -0.19)"/><path class="cls-3" d="M76.43,67.83c0-.62-7.67,0-11.48,0,0,3.46-.64,9.57,0,10.23,1,.35,6.65.74,10,1.12a47.24,47.24,0,0,0,1.5-11.35Z" transform="translate(-0.18 -0.19)"/><path class="cls-6" d="M91.21,110.35v-.67C92.73,97,95.78,84.57,98,72c.87-4.89,1.86-9.75,2.8-14.63.34-1.73.38-1.82,2.14-2.06,4.54-.63,9.1-1.16,13.65-1.73,5.71-.72,11.41-1.47,17.13-2.13,7.1-.83,14.15-2.06,21.32-2.31,2-.07,2.06-.07,2.88,1.74,2.69,5.84,5.46,11.65,8.18,17.48,4.34,9.3,8.74,18.58,13.06,27.9a19.73,19.73,0,0,1,.78,2.8v.23a6.38,6.38,0,0,1-2.17,2.66c-1.42,1.16-2.69,2.5-4,3.77-3.07,2.92-6.18,5.81-9.27,8.71q-7.37,6.94-14.78,13.86c-2.74,2.55-5.41,5.19-8.24,7.66a9.83,9.83,0,0,1-1.71,1.05h-.45c-3.95-1.25-7.3-3.67-10.91-5.58-4.15-2.19-8.24-4.51-12.35-6.79-5.52-3.06-11.07-6.08-16.59-9.16-2.3-1.27-4.61-2.53-6.91-3.81A3,3,0,0,1,91.21,110.35Z" transform="translate(-0.18 -0.19)"/><path class="cls-7" d="M137.76,77a1.79,1.79,0,0,0,.29,1.17q4,8.09,8,16.16c.26.54.44.88,1.23.74a2,2,0,0,1,2.46,1.25.32.32,0,0,1,0,.3.68.68,0,0,1-.91-.06,2,2,0,0,0-2.55-.06.86.86,0,0,1-.75.09.81.81,0,0,1-.38-.33,6.26,6.26,0,0,0-.94-2.84c-2.3-4.61-4.64-9.2-6.88-13.83a1.2,1.2,0,0,0-1.4-.8,2.05,2.05,0,0,1-2-.58c-.23-.25-.72-.33-.55-.84a.76.76,0,0,1,0-.15.31.31,0,0,1,0-.31c.36-.37.74-.23,1.11,0a1.86,1.86,0,0,0,2.28-.08c.31-.22.64-.41,1-.14A.29.29,0,0,1,137.76,77Z" transform="translate(-0.18 -0.19)"/><path class="cls-7" d="M133.43,77.35c.22.18.56.16.69.46a5.8,5.8,0,0,1-.88,2.74c-2.3,5.16-4.57,10.33-6.87,15.5a5.59,5.59,0,0,0-.37,2.16.76.76,0,0,1-.36.37c-.14,0-.31.12-.43,0a2.66,2.66,0,0,0-3.1,0,.54.54,0,0,1-.7-.18.29.29,0,0,1,0-.31,2.34,2.34,0,0,1,2.23-1c.77.08,1-.28,1.29-.88q3.87-8.85,7.8-17.68C133,78.1,133,77.63,133.43,77.35Z" transform="translate(-0.18 -0.19)"/><path class="cls-7" d="M125.54,98.39l.24-.26a23.64,23.64,0,0,0,4.45,0c4.18-.43,8.36-.85,12.54-1.23a3.12,3.12,0,0,0,1.89-.66.66.66,0,0,1,.74-.1l.24.26a4.49,4.49,0,0,1,0,2.76.43.43,0,0,1-.48.17c-.32-1.36-1.18-1.33-2.38-1.2-5,.57-10,1.09-15,1.4-1.46.1-1.25,1.18-1.79,1.83a.4.4,0,0,1-.47-.18A5.1,5.1,0,0,1,125.54,98.39Z" transform="translate(-0.18 -0.19)"/><path class="cls-7" d="M137.76,77l-.06-.34c-.41-.23-.33-.6-.35-1a1.78,1.78,0,0,0-1.76-1.93,1.87,1.87,0,0,0-1.82,2c0,.4.12.84-.29,1.14l-.06.33a2.66,2.66,0,0,1,.2-3.76,2.77,2.77,0,0,1,3.85-.07A2.6,2.6,0,0,1,137.76,77Z" transform="translate(-0.18 -0.19)"/><path class="cls-7" d="M125.73,101l.25.28a2.73,2.73,0,0,1-4.07.79,2.69,2.69,0,0,1-.46-4l.06.34c.32.23.28.57.29.92.06,2,1.27,2.7,3,1.82C125.1,101,125.38,100.86,125.73,101Z" transform="translate(-0.18 -0.19)"/><path class="cls-7" d="M145.2,99.28l.24-.28c.41-.21.71,0,1,.22,1.5.77,2.76.07,2.84-1.59,0-.38-.06-.76.35-1l.06-.34c1,1,.7,2.36-.14,3.46a2.71,2.71,0,0,1-3.39.53A2,2,0,0,1,145.2,99.28Z" transform="translate(-0.18 -0.19)"/><path class="cls-7" d="M145.4,96.09c-.42,1-1.29,1.21-2.31,1.3Q135,98.13,126.93,99c-.78.08-.73-.62-1.15-.84a1.22,1.22,0,0,1-.26-1.57c2.68-6,5.3-11.94,8-17.92.14-.31.16-.77.65-.83a2.3,2.3,0,0,0,2.33.32c.52-.2.78-.13,1,.4q4,8.2,8.11,16.39A1,1,0,0,1,145.4,96.09Z" transform="translate(-0.18 -0.19)"/><path class="cls-7" d="M133.48,76.87c-.53-1.55-.23-2.73.9-3.4a2.11,2.11,0,0,1,2.62.15,2,2,0,0,1,.78,2.47,2.52,2.52,0,0,0-.08.55C136.27,78.17,135.61,78.2,133.48,76.87Z" transform="translate(-0.18 -0.19)"/><path class="cls-7" d="M149.67,96.64a2.63,2.63,0,0,1-.36,2.72c-1.05,1.21-2.47,1.07-3.87-.36a2.89,2.89,0,0,1,.2-2.65C147.25,95.06,148.25,95.13,149.67,96.64Z" transform="translate(-0.18 -0.19)"/><path class="cls-7" d="M125.73,101c-1.54,1.58-2.93,1.6-4.13,0-.64-.83-.32-1.73-.09-2.61,2-1.28,2.51-1.28,4-.06A2.81,2.81,0,0,1,125.73,101Z" transform="translate(-0.18 -0.19)"/><path class="cls-8" d="M198.34,66a3,3,0,0,0-.59,2v3.51h3.8a1,1,0,0,1,.67.27.94.94,0,0,1,0,1.36,1,1,0,0,1-.67.27h-3.8V87.53a1,1,0,0,1-.29.73,1,1,0,0,1-.73.29,1,1,0,0,1-.73-.29,1,1,0,0,1-.29-.73V73.42h-2.49a.89.89,0,0,1-.68-.29.93.93,0,0,1-.27-.66.91.91,0,0,1,.27-.7,1,1,0,0,1,.68-.25h2.49V68A4.33,4.33,0,0,1,197,64.7a4.62,4.62,0,0,1,3.31-1.17,5.06,5.06,0,0,1,1.77.29c.54.19.82.5.82.93a.9.9,0,0,1-.28.68.84.84,0,0,1-.61.27,2,2,0,0,1-.74-.17,5.1,5.1,0,0,0-1.2-.2A2.09,2.09,0,0,0,198.34,66Z" transform="translate(-0.18 -0.19)"/><path class="cls-8" d="M220.36,79.56a1,1,0,0,1-.72.29H206.79a7.88,7.88,0,0,0,.83,3.65A6.29,6.29,0,0,0,210,86.05a6.87,6.87,0,0,0,3.66.94,6.16,6.16,0,0,0,5-2.42,1.15,1.15,0,0,1,.71-.3.93.93,0,0,1,.88.88,1,1,0,0,1-.34.72A8.55,8.55,0,0,1,217.18,88a7.47,7.47,0,0,1-3.49.85,9.3,9.3,0,0,1-4.62-1.12,8,8,0,0,1-3.13-3.15A9.41,9.41,0,0,1,204.82,80a10.36,10.36,0,0,1,1.1-4.88,8.08,8.08,0,0,1,2.94-3.2,7.54,7.54,0,0,1,3.91-1.1,8.08,8.08,0,0,1,3.83,1,7.55,7.55,0,0,1,2.91,2.79,8.43,8.43,0,0,1,1.15,4.35A.94.94,0,0,1,220.36,79.56ZM209.12,74.1A6.33,6.33,0,0,0,207,78h11.59v-.27a5.31,5.31,0,0,0-1-2.67,5.4,5.4,0,0,0-2.12-1.73,6.13,6.13,0,0,0-2.64-.6A5.67,5.67,0,0,0,209.12,74.1Z" transform="translate(-0.18 -0.19)"/><path class="cls-8" d="M226.83,88.26a1,1,0,0,1-.73.29,1,1,0,0,1-.73-.29,1,1,0,0,1-.29-.73V64.41a1,1,0,0,1,1-1,1,1,0,0,1,.73.29,1,1,0,0,1,.29.73V87.53A1,1,0,0,1,226.83,88.26Z" transform="translate(-0.18 -0.19)"/><path class="cls-8" d="M232.6,68.27a1.18,1.18,0,0,1-.38-.94V67a1.15,1.15,0,0,1,.39-.93,1.61,1.61,0,0,1,1.07-.32c.91,0,1.36.42,1.36,1.25v.34a1.24,1.24,0,0,1-.35.94,1.49,1.49,0,0,1-1,.32A1.52,1.52,0,0,1,232.6,68.27Zm1.78,20a1.06,1.06,0,0,1-1.46,0,1,1,0,0,1-.29-.73V71.89a1,1,0,1,1,2,0V87.53A1,1,0,0,1,234.38,88.26Z" transform="translate(-0.18 -0.19)"/><path class="cls-8" d="M252.59,87.63a1,1,0,0,1-.31.73.93.93,0,0,1-.71.33,1.07,1.07,0,0,1-.85-.48l-5.2-6.73-5.21,6.76a.94.94,0,0,1-.81.41,1,1,0,0,1-.68-.25.81.81,0,0,1-.31-.66,1,1,0,0,1,.24-.65L244.33,80l-5.68-7.31a1,1,0,0,1-.21-.61,1,1,0,0,1,.33-.72,1,1,0,0,1,.73-.3.92.92,0,0,1,.81.44l5.31,6.83,5.1-6.83a1,1,0,0,1,.85-.44.93.93,0,0,1,.69.25.86.86,0,0,1,.26.63,1,1,0,0,1-.24.65l-5.51,7.24L252.35,87A.91.91,0,0,1,252.59,87.63Z" transform="translate(-0.18 -0.19)"/><path class="cls-9" d="M280.65,72.93a7.94,7.94,0,0,1,1.45,5v9.62a1,1,0,0,1-.29.73,1,1,0,0,1-.73.29,1,1,0,0,1-1-1V78A5.88,5.88,0,0,0,279,74.36,3.91,3.91,0,0,0,275.67,73a5.71,5.71,0,0,0-4.76,2.53,4.47,4.47,0,0,0-.78,2.53v9.52a1,1,0,0,1-.29.73,1,1,0,0,1-.73.29,1,1,0,0,1-.73-.29,1,1,0,0,1-.29-.73V77.91a5.9,5.9,0,0,0-1-3.59A3.69,3.69,0,0,0,263.88,73a5.45,5.45,0,0,0-2.64.67,5.69,5.69,0,0,0-2,1.82,4.36,4.36,0,0,0-.76,2.47v9.62a1,1,0,0,1-.29.73,1,1,0,0,1-.73.29,1,1,0,0,1-1-1V72.3a1,1,0,0,1,1-1,1,1,0,0,1,.73.29,1,1,0,0,1,.29.73v2A7.36,7.36,0,0,1,261,72a6.43,6.43,0,0,1,3.3-.92,6,6,0,0,1,3.4.95,5.26,5.26,0,0,1,2,2.79,6.33,6.33,0,0,1,2.62-2.62A7.48,7.48,0,0,1,276.15,71,5.3,5.3,0,0,1,280.65,72.93Z" transform="translate(-0.18 -0.19)"/><path class="cls-9" d="M302.28,71.48a1.08,1.08,0,0,1,.29.75v15.3a1,1,0,0,1-.29.73,1,1,0,0,1-.73.29,1,1,0,0,1-.73-.29,1,1,0,0,1-.29-.73V85.25A7.25,7.25,0,0,1,298,87.84a6.94,6.94,0,0,1-3.71,1,7.37,7.37,0,0,1-4.1-1.19,8.16,8.16,0,0,1-2.85-3.26,10.33,10.33,0,0,1-1-4.66,9.94,9.94,0,0,1,1.06-4.64,8.16,8.16,0,0,1,2.87-3.22,7.63,7.63,0,0,1,7.77-.17,6.54,6.54,0,0,1,2.55,2.59V72.23a1,1,0,0,1,.29-.75,1,1,0,0,1,.73-.3A1,1,0,0,1,302.28,71.48Zm-4.63,14.57a6.28,6.28,0,0,0,2.21-2.58,8.26,8.26,0,0,0,.8-3.69,8,8,0,0,0-.8-3.61,6.35,6.35,0,0,0-2.21-2.56,5.88,5.88,0,0,0-6.35,0,6.19,6.19,0,0,0-2.21,2.53,8.07,8.07,0,0,0-.8,3.66,8.53,8.53,0,0,0,.78,3.69,6.17,6.17,0,0,0,2.19,2.58,5.9,5.9,0,0,0,6.39,0Z" transform="translate(-0.18 -0.19)"/><path class="cls-9" d="M322.75,63.68a1,1,0,0,1,.28.73V87.53a1,1,0,0,1-.28.73,1.08,1.08,0,0,1-1.47,0,1,1,0,0,1-.29-.73V85.15a7.26,7.26,0,0,1-2.53,2.65,6.67,6.67,0,0,1-3.72,1.09,7.33,7.33,0,0,1-4.06-1.17,8.21,8.21,0,0,1-2.88-3.25,10.78,10.78,0,0,1,0-9.28,8.21,8.21,0,0,1,2.88-3.25,7.27,7.27,0,0,1,4-1.17,7.15,7.15,0,0,1,3.71,1,6.85,6.85,0,0,1,2.58,2.6v-10a1,1,0,0,1,.29-.73,1.08,1.08,0,0,1,1.47,0Zm-4.63,22.39a6.19,6.19,0,0,0,2.21-2.57,8.39,8.39,0,0,0,.8-3.69,8.24,8.24,0,0,0-.8-3.64,6.35,6.35,0,0,0-2.21-2.56,5.85,5.85,0,0,0-6.36,0,6.43,6.43,0,0,0-2.21,2.56,8.23,8.23,0,0,0-.79,3.64,8.31,8.31,0,0,0,.79,3.68,6.43,6.43,0,0,0,2.21,2.56,5.58,5.58,0,0,0,3.18.94A5.72,5.72,0,0,0,318.12,86.07Z" transform="translate(-0.18 -0.19)"/><path class="cls-9" d="M342.75,79.56a1,1,0,0,1-.71.29H329.19A7.88,7.88,0,0,0,330,83.5a6.29,6.29,0,0,0,2.38,2.55,6.87,6.87,0,0,0,3.66.94,6.22,6.22,0,0,0,2.92-.68,6,6,0,0,0,2.07-1.74,1.17,1.17,0,0,1,.72-.3.85.85,0,0,1,.61.27.84.84,0,0,1,.27.61,1,1,0,0,1-.34.72A8.66,8.66,0,0,1,339.58,88a7.5,7.5,0,0,1-3.49.85,9.24,9.24,0,0,1-4.62-1.12,8,8,0,0,1-3.13-3.15A9.41,9.41,0,0,1,327.22,80a10.24,10.24,0,0,1,1.1-4.88,8.08,8.08,0,0,1,2.94-3.2,7.54,7.54,0,0,1,3.91-1.1,8.08,8.08,0,0,1,3.83,1,7.46,7.46,0,0,1,2.9,2.79,8.34,8.34,0,0,1,1.16,4.35A.91.91,0,0,1,342.75,79.56ZM331.52,74.1A6.33,6.33,0,0,0,329.36,78H341v-.27a5.31,5.31,0,0,0-1-2.67,5.4,5.4,0,0,0-2.12-1.73,6.13,6.13,0,0,0-2.64-.6A5.67,5.67,0,0,0,331.52,74.1Z" transform="translate(-0.18 -0.19)"/><path class="cls-8" d="M371.5,72.93a8,8,0,0,1,1.45,5v9.62a1,1,0,0,1-.29.73,1,1,0,0,1-.73.29,1,1,0,0,1-.73-.29,1,1,0,0,1-.29-.73V78a5.88,5.88,0,0,0-1.07-3.65A3.91,3.91,0,0,0,366.52,73a5.71,5.71,0,0,0-4.76,2.53A4.47,4.47,0,0,0,361,78v9.52a1,1,0,0,1-.29.73,1,1,0,0,1-.73.29,1,1,0,0,1-.73-.29,1,1,0,0,1-.29-.73V77.91a5.9,5.9,0,0,0-1-3.59,3.71,3.71,0,0,0-3.2-1.37,5.39,5.39,0,0,0-2.63.67,5.69,5.69,0,0,0-2,1.82,4.36,4.36,0,0,0-.76,2.47v9.62a1,1,0,0,1-.29.73,1,1,0,0,1-.73.29,1,1,0,0,1-.73-.29,1,1,0,0,1-.29-.73V72.3a1,1,0,0,1,.29-.73,1,1,0,0,1,.73-.29,1,1,0,0,1,.73.29,1,1,0,0,1,.29.73v2A7.36,7.36,0,0,1,351.8,72a6.43,6.43,0,0,1,3.3-.92,6.05,6.05,0,0,1,3.4.95,5.26,5.26,0,0,1,2,2.79,6.24,6.24,0,0,1,2.61-2.62A7.48,7.48,0,0,1,367,71,5.3,5.3,0,0,1,371.5,72.93Z" transform="translate(-0.18 -0.19)"/><path class="cls-8" d="M392.67,79.56a1,1,0,0,1-.72.29H379.1a7.88,7.88,0,0,0,.83,3.65,6.29,6.29,0,0,0,2.38,2.55A6.87,6.87,0,0,0,386,87a6.16,6.16,0,0,0,5-2.42,1.15,1.15,0,0,1,.71-.3.93.93,0,0,1,.88.88,1,1,0,0,1-.34.72A8.55,8.55,0,0,1,389.49,88a7.47,7.47,0,0,1-3.49.85,9.3,9.3,0,0,1-4.62-1.12,8,8,0,0,1-3.13-3.15A9.41,9.41,0,0,1,377.13,80a10.36,10.36,0,0,1,1.1-4.88,8.08,8.08,0,0,1,2.94-3.2,7.54,7.54,0,0,1,3.91-1.1,8.08,8.08,0,0,1,3.83,1,7.55,7.55,0,0,1,2.91,2.79A8.43,8.43,0,0,1,393,78.86.94.94,0,0,1,392.67,79.56ZM381.43,74.1A6.33,6.33,0,0,0,379.27,78h11.59v-.27a5.31,5.31,0,0,0-1-2.67,5.4,5.4,0,0,0-2.12-1.73,6.13,6.13,0,0,0-2.64-.6A5.67,5.67,0,0,0,381.43,74.1Z" transform="translate(-0.18 -0.19)"/><path class="cls-8" d="M201.42,108.71a3.62,3.62,0,0,1-2.87-1.15,4.7,4.7,0,0,1-1-3.24,4.85,4.85,0,0,1,1-3.32,3.73,3.73,0,0,1,2.95-1.17,6.61,6.61,0,0,1,1.24.13,4,4,0,0,1,1,.32l-.39,1.1a6.1,6.1,0,0,0-.94-.29,4.57,4.57,0,0,0-.9-.11q-2.61,0-2.61,3.33a3.92,3.92,0,0,0,.64,2.42,2.2,2.2,0,0,0,1.88.84,5.71,5.71,0,0,0,2.2-.46v1.15A4.65,4.65,0,0,1,201.42,108.71Z" transform="translate(-0.18 -0.19)"/><path class="cls-8" d="M209.53,99.83a4.52,4.52,0,0,1,1,.1l-.18,1.2a4.32,4.32,0,0,0-.94-.12,2.25,2.25,0,0,0-1.77.85,3,3,0,0,0-.74,2.1v4.59h-1.3V100h1.07l.15,1.58h.06a3.92,3.92,0,0,1,1.15-1.29A2.61,2.61,0,0,1,209.53,99.83Z" transform="translate(-0.18 -0.19)"/><path class="cls-8" d="M215.77,108.71a3.94,3.94,0,0,1-3-1.16,4.48,4.48,0,0,1-1.1-3.21,5,5,0,0,1,1-3.29,3.41,3.41,0,0,1,2.74-1.22,3.25,3.25,0,0,1,2.55,1.06,4.09,4.09,0,0,1,.94,2.79v.82H213a3.36,3.36,0,0,0,.76,2.29,2.64,2.64,0,0,0,2,.78,7,7,0,0,0,2.73-.57v1.15a7,7,0,0,1-1.3.43A7.75,7.75,0,0,1,215.77,108.71Zm-.35-7.79a2.12,2.12,0,0,0-1.65.67,3.08,3.08,0,0,0-.72,1.86h4.48a2.89,2.89,0,0,0-.55-1.88A2,2,0,0,0,215.42,100.92Z" transform="translate(-0.18 -0.19)"/><path class="cls-8" d="M226.39,108.55l-.25-1.22h-.07a3.53,3.53,0,0,1-1.27,1.09,3.93,3.93,0,0,1-1.59.29,2.86,2.86,0,0,1-2-.66,2.4,2.4,0,0,1-.72-1.87c0-1.73,1.38-2.63,4.15-2.72l1.45,0v-.53a2.21,2.21,0,0,0-.43-1.49,1.8,1.8,0,0,0-1.39-.48,5.71,5.71,0,0,0-2.42.65l-.4-1a6.16,6.16,0,0,1,2.9-.73,3.24,3.24,0,0,1,2.27.68,2.84,2.84,0,0,1,.73,2.18v5.84Zm-2.93-.91a2.62,2.62,0,0,0,1.91-.67,2.45,2.45,0,0,0,.69-1.86v-.77l-1.3,0a4.83,4.83,0,0,0-2.23.48,1.45,1.45,0,0,0-.68,1.33,1.34,1.34,0,0,0,.42,1.07A1.8,1.8,0,0,0,223.46,107.64Z" transform="translate(-0.18 -0.19)"/><path class="cls-8" d="M232.79,107.64a4.91,4.91,0,0,0,.67,0,4.45,4.45,0,0,0,.5-.11v1a2.06,2.06,0,0,1-.62.17,5.24,5.24,0,0,1-.74.07c-1.65,0-2.48-.88-2.48-2.62V101h-1.23v-.63l1.23-.54.55-1.83h.75v2h2.48v1h-2.48v5a1.75,1.75,0,0,0,.36,1.19A1.28,1.28,0,0,0,232.79,107.64Z" transform="translate(-0.18 -0.19)"/><path class="cls-8" d="M235.57,97.67a.86.86,0,0,1,.21-.65.81.81,0,0,1,1.09,0,1,1,0,0,1,0,1.3.81.81,0,0,1-1.09,0A.89.89,0,0,1,235.57,97.67Zm1.4,10.88h-1.3V100H237Z" transform="translate(-0.18 -0.19)"/><path class="cls-8" d="M241.6,108.55,238.35,100h1.39l1.84,5.08c.42,1.18.66,2,.74,2.31h.06a16.31,16.31,0,0,1,.54-1.72q.47-1.29,2.05-5.67h1.39l-3.25,8.56Z" transform="translate(-0.18 -0.19)"/><path class="cls-8" d="M251.35,108.71a3.93,3.93,0,0,1-3-1.16,4.48,4.48,0,0,1-1.1-3.21,5,5,0,0,1,1-3.29A3.39,3.39,0,0,1,251,99.83a3.27,3.27,0,0,1,2.55,1.06,4.09,4.09,0,0,1,.93,2.79v.82h-5.9a3.37,3.37,0,0,0,.77,2.29,2.63,2.63,0,0,0,2,.78,7,7,0,0,0,2.74-.57v1.15a7.3,7.3,0,0,1-1.3.43A7.86,7.86,0,0,1,251.35,108.71Zm-.35-7.79a2.11,2.11,0,0,0-1.64.67,3.08,3.08,0,0,0-.72,1.86h4.47a2.89,2.89,0,0,0-.54-1.88A2,2,0,0,0,251,100.92Z" transform="translate(-0.18 -0.19)"/><path class="cls-8" d="M267.86,108.55l-1.57-5c-.1-.31-.28-1-.55-2.1h-.07c-.2.92-.39,1.62-.54,2.11l-1.62,5H262L259.67,100H261q.84,3.23,1.27,4.91a18.72,18.72,0,0,1,.49,2.28h.06c.06-.3.15-.69.28-1.16s.24-.84.33-1.12L265,100h1.41L268,104.9a18.12,18.12,0,0,1,.6,2.26h.06a6.32,6.32,0,0,1,.17-.87q.13-.58,1.62-6.3h1.35l-2.37,8.56Z" transform="translate(-0.18 -0.19)"/><path class="cls-8" d="M276.93,108.71a3.93,3.93,0,0,1-3-1.16,4.44,4.44,0,0,1-1.1-3.21,5,5,0,0,1,1-3.29,3.39,3.39,0,0,1,2.74-1.22,3.23,3.23,0,0,1,2.54,1.06,4,4,0,0,1,.94,2.79v.82h-5.9a3.42,3.42,0,0,0,.76,2.29,2.65,2.65,0,0,0,2,.78,7,7,0,0,0,2.73-.57v1.15a6.81,6.81,0,0,1-1.3.43A7.75,7.75,0,0,1,276.93,108.71Zm-.35-7.79a2.08,2.08,0,0,0-1.64.67,3.15,3.15,0,0,0-.73,1.86h4.48a2.83,2.83,0,0,0-.55-1.88A1.92,1.92,0,0,0,276.58,100.92Z" transform="translate(-0.18 -0.19)"/><path class="cls-8" d="M286.28,99.85A3.19,3.19,0,0,1,288.9,101a6.19,6.19,0,0,1,0,6.54,3.17,3.17,0,0,1-2.61,1.17,3.8,3.8,0,0,1-1.53-.31,2.87,2.87,0,0,1-1.16-1h-.09l-.28,1.1h-.93V96.39h1.3v3c0,.66,0,1.25-.06,1.78h.06A3.08,3.08,0,0,1,286.28,99.85Zm-.19,1.08a2.28,2.28,0,0,0-1.92.77,5.89,5.89,0,0,0,0,5.14,2.28,2.28,0,0,0,1.93.78,2,2,0,0,0,1.78-.87,4.48,4.48,0,0,0,.59-2.5,4.33,4.33,0,0,0-.59-2.5A2.08,2.08,0,0,0,286.09,100.93Z" transform="translate(-0.18 -0.19)"/><path class="cls-8" d="M297.62,106.21a2.16,2.16,0,0,1-.89,1.85,4.2,4.2,0,0,1-2.5.65,5.44,5.44,0,0,1-2.66-.54V107a6.41,6.41,0,0,0,1.33.5,5.47,5.47,0,0,0,1.36.18,3,3,0,0,0,1.56-.33,1.05,1.05,0,0,0,.55-1,1.06,1.06,0,0,0-.43-.85,6.77,6.77,0,0,0-1.69-.84,9.16,9.16,0,0,1-1.7-.78,2.23,2.23,0,0,1-.75-.75,2.07,2.07,0,0,1,.6-2.66,3.94,3.94,0,0,1,2.34-.61,6.91,6.91,0,0,1,2.7.56l-.46,1.06a6.3,6.3,0,0,0-2.34-.53,2.64,2.64,0,0,0-1.39.29.9.9,0,0,0-.47.79,1,1,0,0,0,.18.59,1.73,1.73,0,0,0,.57.46,11.15,11.15,0,0,0,1.5.63,5.77,5.77,0,0,1,2.06,1.12A2,2,0,0,1,297.62,106.21Z" transform="translate(-0.18 -0.19)"/><path class="cls-8" d="M299.62,97.67a.82.82,0,0,1,.22-.65.8.8,0,0,1,1.08,0,1,1,0,0,1,0,1.3.8.8,0,0,1-1.08,0A.85.85,0,0,1,299.62,97.67ZM301,108.55h-1.3V100H301Z" transform="translate(-0.18 -0.19)"/><path class="cls-8" d="M306.54,107.64a4.91,4.91,0,0,0,.67,0,4.45,4.45,0,0,0,.5-.11v1a2.06,2.06,0,0,1-.62.17,5.24,5.24,0,0,1-.74.07c-1.65,0-2.48-.88-2.48-2.62V101h-1.23v-.63l1.23-.54.55-1.83h.75v2h2.48v1h-2.48v5a1.75,1.75,0,0,0,.36,1.19A1.28,1.28,0,0,0,306.54,107.64Z" transform="translate(-0.18 -0.19)"/><path class="cls-8" d="M313,108.71a3.93,3.93,0,0,1-3-1.16,4.44,4.44,0,0,1-1.1-3.21,5,5,0,0,1,1-3.29,3.39,3.39,0,0,1,2.74-1.22,3.23,3.23,0,0,1,2.54,1.06,4,4,0,0,1,.94,2.79v.82h-5.9a3.42,3.42,0,0,0,.76,2.29,2.65,2.65,0,0,0,2,.78,7,7,0,0,0,2.73-.57v1.15a7,7,0,0,1-1.3.43A7.75,7.75,0,0,1,313,108.71Zm-.35-7.79a2.08,2.08,0,0,0-1.64.67,3.15,3.15,0,0,0-.73,1.86h4.48a2.83,2.83,0,0,0-.55-1.88A1.92,1.92,0,0,0,312.69,100.92Z" transform="translate(-0.18 -0.19)"/><path class="cls-8" d="M328.08,106.21a2.16,2.16,0,0,1-.89,1.85,4.2,4.2,0,0,1-2.5.65,5.44,5.44,0,0,1-2.66-.54V107a6.63,6.63,0,0,0,1.33.5,5.47,5.47,0,0,0,1.36.18,3,3,0,0,0,1.56-.33,1.05,1.05,0,0,0,.55-1,1.06,1.06,0,0,0-.43-.85,6.77,6.77,0,0,0-1.69-.84,9.16,9.16,0,0,1-1.7-.78,2.23,2.23,0,0,1-.75-.75,2.07,2.07,0,0,1,.6-2.66,3.94,3.94,0,0,1,2.34-.61,6.91,6.91,0,0,1,2.7.56l-.46,1.06a6.3,6.3,0,0,0-2.34-.53,2.64,2.64,0,0,0-1.39.29.89.89,0,0,0-.46.79,1,1,0,0,0,.17.59,1.73,1.73,0,0,0,.57.46,11.15,11.15,0,0,0,1.5.63,5.77,5.77,0,0,1,2.06,1.12A2,2,0,0,1,328.08,106.21Z" transform="translate(-0.18 -0.19)"/><path class="cls-8" d="M337.58,104.26a4.72,4.72,0,0,1-1.05,3.27,3.72,3.72,0,0,1-2.92,1.18,3.89,3.89,0,0,1-2-.54,3.57,3.57,0,0,1-1.37-1.55,5.43,5.43,0,0,1-.49-2.36,4.71,4.71,0,0,1,1.05-3.26,3.71,3.71,0,0,1,2.91-1.17,3.61,3.61,0,0,1,2.85,1.2A4.66,4.66,0,0,1,337.58,104.26Zm-6.52,0a4.1,4.1,0,0,0,.65,2.5,2.62,2.62,0,0,0,3.87,0,4.06,4.06,0,0,0,.66-2.51,4,4,0,0,0-.66-2.48,2.34,2.34,0,0,0-1.95-.85,2.27,2.27,0,0,0-1.92.84A4,4,0,0,0,331.06,104.26Z" transform="translate(-0.18 -0.19)"/><path class="cls-8" d="M341.15,108.55h-1.3V96.39h1.3Z" transform="translate(-0.18 -0.19)"/><path class="cls-8" d="M345.12,100v5.55a2.25,2.25,0,0,0,.48,1.57,1.93,1.93,0,0,0,1.49.51,2.42,2.42,0,0,0,2-.73,3.67,3.67,0,0,0,.62-2.4V100H351v8.56H349.9l-.19-1.15h-.07a2.54,2.54,0,0,1-1.1,1,3.78,3.78,0,0,1-1.62.34,3.21,3.21,0,0,1-2.33-.75,3.13,3.13,0,0,1-.78-2.37V100Z" transform="translate(-0.18 -0.19)"/><path class="cls-8" d="M356.49,107.64a4.65,4.65,0,0,0,.66,0c.21,0,.38-.07.51-.11v1a2.15,2.15,0,0,1-.62.17,5.37,5.37,0,0,1-.74.07c-1.66,0-2.48-.88-2.48-2.62V101h-1.23v-.63l1.23-.54.54-1.83h.75v2h2.49v1h-2.49v5a1.7,1.7,0,0,0,.37,1.19A1.26,1.26,0,0,0,356.49,107.64Z" transform="translate(-0.18 -0.19)"/><path class="cls-8" d="M359.26,97.67a.82.82,0,0,1,.22-.65.77.77,0,0,1,.55-.21.8.8,0,0,1,.54.21,1.07,1.07,0,0,1,0,1.3.8.8,0,0,1-.54.21.77.77,0,0,1-.55-.21A.85.85,0,0,1,359.26,97.67Zm1.41,10.88h-1.3V100h1.3Z" transform="translate(-0.18 -0.19)"/><path class="cls-8" d="M370.81,104.26a4.68,4.68,0,0,1-1.06,3.27,3.68,3.68,0,0,1-2.91,1.18,3.84,3.84,0,0,1-2-.54,3.66,3.66,0,0,1-1.38-1.55,5.43,5.43,0,0,1-.48-2.36A4.71,4.71,0,0,1,364,101a3.67,3.67,0,0,1,2.9-1.17,3.63,3.63,0,0,1,2.86,1.2A4.71,4.71,0,0,1,370.81,104.26Zm-6.53,0a4,4,0,0,0,.66,2.5,2.61,2.61,0,0,0,3.86,0,4.06,4.06,0,0,0,.66-2.51,4,4,0,0,0-.66-2.48,2.34,2.34,0,0,0-1.95-.85,2.28,2.28,0,0,0-1.92.84A4,4,0,0,0,364.28,104.26Z" transform="translate(-0.18 -0.19)"/><path class="cls-8" d="M378.94,108.55V103a2.21,2.21,0,0,0-.48-1.56,1.94,1.94,0,0,0-1.49-.52,2.49,2.49,0,0,0-2,.73,3.7,3.7,0,0,0-.62,2.4v4.49h-1.3V100h1.06l.21,1.17h.06a2.62,2.62,0,0,1,1.12-1,3.65,3.65,0,0,1,1.6-.35,3.26,3.26,0,0,1,2.33.75,3.17,3.17,0,0,1,.78,2.38v5.59Z" transform="translate(-0.18 -0.19)"/><path class="cls-8" d="M388.42,106.21a2.13,2.13,0,0,1-.89,1.85,4.18,4.18,0,0,1-2.5.65,5.4,5.4,0,0,1-2.65-.54V107a6.32,6.32,0,0,0,1.32.5,5.55,5.55,0,0,0,1.37.18,3.07,3.07,0,0,0,1.56-.33,1.12,1.12,0,0,0,.11-1.84,6.59,6.59,0,0,0-1.69-.84,9.49,9.49,0,0,1-1.7-.78,2.23,2.23,0,0,1-.75-.75,2,2,0,0,1-.25-1,1.91,1.91,0,0,1,.86-1.65,3.89,3.89,0,0,1,2.33-.61,7,7,0,0,1,2.71.56l-.47,1.06a6.25,6.25,0,0,0-2.33-.53,2.59,2.59,0,0,0-1.39.29.9.9,0,0,0-.47.79,1,1,0,0,0,.17.59,1.73,1.73,0,0,0,.57.46,11.15,11.15,0,0,0,1.5.63,5.68,5.68,0,0,1,2.06,1.12A2,2,0,0,1,388.42,106.21Z" transform="translate(-0.18 -0.19)"/></g></g></svg>